{
	"patcher" : 	{
		"fileversion" : 1,
		"appversion" : 		{
			"major" : 8,
			"minor" : 5,
			"revision" : 3,
			"architecture" : "x64",
			"modernui" : 1
		}
,
		"classnamespace" : "box",
		"rect" : [ 0.0, 0.0, 1664.0, 1015.0 ],
		"bglocked" : 1,
		"openinpresentation" : 0,
		"default_fontsize" : 12.0,
		"default_fontface" : 0,
		"default_fontname" : "Arial",
		"gridonopen" : 1,
		"gridsize" : [ 15.0, 15.0 ],
		"gridsnaponopen" : 1,
		"objectsnaponopen" : 1,
		"statusbarvisible" : 2,
		"toolbarvisible" : 1,
		"lefttoolbarpinned" : 0,
		"toptoolbarpinned" : 0,
		"righttoolbarpinned" : 0,
		"bottomtoolbarpinned" : 0,
		"toolbars_unpinned_last_save" : 0,
		"tallnewobj" : 0,
		"boxanimatetime" : 200,
		"enablehscroll" : 1,
		"enablevscroll" : 1,
		"devicewidth" : 0.0,
		"description" : "",
		"digest" : "",
		"tags" : "",
		"style" : "",
		"subpatcher_template" : "",
		"assistshowspatchername" : 0,
		"boxes" : [ 			{
				"box" : 				{
					"id" : "obj-79",
					"maxclass" : "toggle",
					"numinlets" : 1,
					"numoutlets" : 1,
					"outlettype" : [ "int" ],
					"parameter_enable" : 0,
					"patching_rect" : [ 1089.0, 900.0, 24.0, 24.0 ]
				}

			}
, 			{
				"box" : 				{
					"id" : "obj-75",
					"maxclass" : "newobj",
					"numinlets" : 1,
					"numoutlets" : 3,
					"outlettype" : [ "jit_matrix", "bang", "" ],
					"patching_rect" : [ 1094.0, 964.0, 49.0, 22.0 ],
					"text" : "jit.world"
				}

			}
, 			{
				"box" : 				{
					"annotation" : "## Four-input video mixer ##",
					"bgmode" : 1,
					"border" : 0,
					"clickthrough" : 0,
					"enablehscroll" : 0,
					"enablevscroll" : 0,
					"id" : "obj-74",
					"lockeddragscroll" : 0,
					"lockedsize" : 0,
					"maxclass" : "bpatcher",
					"name" : "vz.4mixr.maxpat",
					"numinlets" : 8,
					"numoutlets" : 1,
					"offset" : [ 0.0, 0.0 ],
					"outlettype" : [ "jit_gl_texture" ],
					"patching_rect" : [ 1089.0, 747.0, 228.0, 130.0 ],
					"prototypename" : "pixl",
					"varname" : "4mixr",
					"viewvisibility" : 1
				}

			}
, 			{
				"box" : 				{
					"annotation" : "## Smear a video ##",
					"bgmode" : 1,
					"border" : 0,
					"clickthrough" : 0,
					"enablehscroll" : 0,
					"enablevscroll" : 0,
					"id" : "obj-73",
					"lockeddragscroll" : 0,
					"lockedsize" : 0,
					"maxclass" : "bpatcher",
					"name" : "vz.slidr.maxpat",
					"numinlets" : 3,
					"numoutlets" : 1,
					"offset" : [ 0.0, 0.0 ],
					"outlettype" : [ "jit_gl_texture" ],
					"patching_rect" : [ 715.0, 910.0, 138.0, 130.0 ],
					"prototypename" : "pixl",
					"varname" : "slidr[1]",
					"viewvisibility" : 1
				}

			}
, 			{
				"box" : 				{
					"id" : "obj-67",
					"maxclass" : "jit.pwindow",
					"numinlets" : 1,
					"numoutlets" : 2,
					"outlettype" : [ "jit_matrix", "" ],
					"patching_rect" : [ 172.300003000000004, 678.0, 441.0, 341.0 ],
					"sync" : 1
				}

			}
, 			{
				"box" : 				{
					"annotation" : "## Tesselate your video for Mandala-like effects ##",
					"bgmode" : 1,
					"border" : 0,
					"clickthrough" : 0,
					"enablehscroll" : 0,
					"enablevscroll" : 0,
					"id" : "obj-66",
					"lockeddragscroll" : 0,
					"lockedsize" : 0,
					"maxclass" : "bpatcher",
					"name" : "vz.tessel8r.maxpat",
					"numinlets" : 7,
					"numoutlets" : 1,
					"offset" : [ 0.0, 0.0 ],
					"outlettype" : [ "jit_gl_texture" ],
					"patching_rect" : [ 715.0, 756.0, 268.0, 148.0 ],
					"prototypename" : "pixl",
					"varname" : "tessel8r",
					"viewvisibility" : 1
				}

			}
, 			{
				"box" : 				{
					"annotation" : "## Capture VIZZIE video and audio ##",
					"bgmode" : 0,
					"border" : 0,
					"clickthrough" : 0,
					"enablehscroll" : 0,
					"enablevscroll" : 0,
					"id" : "obj-63",
					"lockeddragscroll" : 0,
					"lockedsize" : 0,
					"maxclass" : "bpatcher",
					"name" : "vz.avrecordr.maxpat",
					"numinlets" : 5,
					"numoutlets" : 0,
					"offset" : [ 0.0, 0.0 ],
					"patching_rect" : [ 715.0, 575.0, 360.0, 149.0 ],
					"varname" : "avrecordr",
					"viewvisibility" : 1
				}

			}
, 			{
				"box" : 				{
					"format" : 6,
					"id" : "obj-57",
					"maxclass" : "flonum",
					"numinlets" : 1,
					"numoutlets" : 2,
					"outlettype" : [ "", "bang" ],
					"parameter_enable" : 0,
					"patching_rect" : [ 497.0, 43.0, 50.0, 22.0 ]
				}

			}
, 			{
				"box" : 				{
					"format" : 6,
					"id" : "obj-34",
					"maxclass" : "flonum",
					"numinlets" : 1,
					"numoutlets" : 2,
					"outlettype" : [ "", "bang" ],
					"parameter_enable" : 0,
					"patching_rect" : [ 472.0, 485.0, 50.0, 22.0 ]
				}

			}
, 			{
				"box" : 				{
					"id" : "obj-29",
					"maxclass" : "newobj",
					"numinlets" : 1,
					"numoutlets" : 1,
					"outlettype" : [ "" ],
					"patching_rect" : [ 472.0, 449.0, 85.0, 22.0 ],
					"text" : "ease 0 1 0.2 1"
				}

			}
, 			{
				"box" : 				{
					"id" : "obj-12",
					"maxclass" : "newobj",
					"numinlets" : 1,
					"numoutlets" : 2,
					"outlettype" : [ "signal", "signal" ],
					"patching_rect" : [ 924.0, 139.0, 74.0, 22.0 ],
					"text" : "mc.unpack~"
				}

			}
, 			{
				"box" : 				{
					"id" : "obj-2",
					"maxclass" : "newobj",
					"numinlets" : 1,
					"numoutlets" : 0,
					"patching_rect" : [ 924.0, 168.800003000000004, 54.0, 22.0 ],
					"text" : "mc.dac~"
				}

			}
, 			{
				"box" : 				{
					"id" : "obj-33",
					"maxclass" : "spectroscope~",
					"numinlets" : 2,
					"numoutlets" : 1,
					"outlettype" : [ "" ],
					"patching_rect" : [ 703.0, 287.0, 300.0, 100.0 ]
				}

			}
, 			{
				"box" : 				{
					"id" : "obj-31",
					"maxclass" : "message",
					"numinlets" : 2,
					"numoutlets" : 1,
					"outlettype" : [ "" ],
					"patching_rect" : [ 924.0, 82.0, 35.0, 22.0 ],
					"text" : "open"
				}

			}
, 			{
				"box" : 				{
					"id" : "obj-28",
					"maxclass" : "newobj",
					"numinlets" : 1,
					"numoutlets" : 1,
					"outlettype" : [ "multichannelsignal" ],
					"patching_rect" : [ 924.0, 110.0, 54.0, 22.0 ],
					"text" : "mc.adc~"
				}

			}
, 			{
				"box" : 				{
					"id" : "obj-24",
					"maxclass" : "newobj",
					"numinlets" : 8,
					"numoutlets" : 2,
					"outlettype" : [ "", "" ],
					"patching_rect" : [ 172.300003000000004, 593.40002400000003, 92.5, 22.0 ],
					"text" : "jit.gl.material"
				}

			}
, 			{
				"box" : 				{
					"bgmode" : 0,
					"border" : 0,
					"clickthrough" : 0,
					"enablehscroll" : 0,
					"enablevscroll" : 0,
					"extract" : 1,
					"id" : "obj-21",
					"lockeddragscroll" : 0,
					"lockedsize" : 0,
					"maxclass" : "bpatcher",
					"name" : "bp.Stereo.maxpat",
					"numinlets" : 2,
					"numoutlets" : 0,
					"offset" : [ 0.0, 0.0 ],
					"patching_rect" : [ 264.0, 95.800003000000004, 148.0, 116.0 ],
					"varname" : "bp.Stereo",
					"viewvisibility" : 1
				}

			}
, 			{
				"box" : 				{
					"basictuning" : 440,
					"data" : 					{
						"clips" : [ 							{
								"absolutepath" : "RUWA - Scared to Be Alone.mp3",
								"filename" : "RUWA - Scared to Be Alone.mp3",
								"filekind" : "audiofile",
								"id" : "u329003505",
								"loop" : 0,
								"content_state" : 								{

								}

							}
 ]
					}
,
					"followglobaltempo" : 0,
					"formantcorrection" : 0,
					"id" : "obj-20",
					"maxclass" : "playlist~",
					"mode" : "basic",
					"numinlets" : 1,
					"numoutlets" : 5,
					"originallength" : [ 0.0, "ticks" ],
					"originaltempo" : 120.0,
					"outlettype" : [ "signal", "signal", "signal", "", "dictionary" ],
					"parameter_enable" : 0,
					"patching_rect" : [ 259.0, 28.0, 150.0, 30.0 ],
					"pitchcorrection" : 0,
					"quality" : "basic",
					"timestretch" : [ 0 ]
				}

			}
, 			{
				"box" : 				{
					"id" : "obj-8",
					"maxclass" : "newobj",
					"numinlets" : 9,
					"numoutlets" : 2,
					"outlettype" : [ "", "" ],
					"patching_rect" : [ 11.0, 643.0, 103.0, 22.0 ],
					"text" : "jit.gl.mesh"
				}

			}
, 			{
				"box" : 				{
					"id" : "obj-3",
					"maxclass" : "toggle",
					"numinlets" : 1,
					"numoutlets" : 1,
					"outlettype" : [ "int" ],
					"parameter_enable" : 0,
					"patching_rect" : [ 11.0, 12.0, 24.0, 24.0 ]
				}

			}
, 			{
				"box" : 				{
					"id" : "obj-1",
					"maxclass" : "newobj",
					"numinlets" : 1,
					"numoutlets" : 3,
					"outlettype" : [ "jit_gl_texture", "bang", "" ],
					"patching_rect" : [ 11.0, 111.400002000000001, 49.0, 22.0 ],
					"text" : "jit.world"
				}

			}
, 			{
				"box" : 				{
					"args" : [ "vz.slidr.maxpat" ],
					"bgmode" : 0,
					"border" : 0,
					"clickthrough" : 0,
					"embed" : 1,
					"enablehscroll" : 0,
					"enablevscroll" : 0,
					"id" : "obj-11",
					"lockeddragscroll" : 0,
					"lockedsize" : 0,
					"maxclass" : "bpatcher",
					"numinlets" : 3,
					"numoutlets" : 1,
					"offset" : [ 0.0, 0.0 ],
					"outlettype" : [ "jit_matrix" ],
					"patcher" : 					{
						"fileversion" : 1,
						"appversion" : 						{
							"major" : 8,
							"minor" : 5,
							"revision" : 3,
							"architecture" : "x64",
							"modernui" : 1
						}
,
						"classnamespace" : "box",
						"rect" : [ 40.0, 84.0, 140.0, 129.0 ],
						"bglocked" : 0,
						"openinpresentation" : 1,
						"default_fontsize" : 12.0,
						"default_fontface" : 0,
						"default_fontname" : "Arial",
						"gridonopen" : 1,
						"gridsize" : [ 8.0, 8.0 ],
						"gridsnaponopen" : 1,
						"objectsnaponopen" : 1,
						"statusbarvisible" : 2,
						"toolbarvisible" : 1,
						"lefttoolbarpinned" : 0,
						"toptoolbarpinned" : 0,
						"righttoolbarpinned" : 0,
						"bottomtoolbarpinned" : 0,
						"toolbars_unpinned_last_save" : 0,
						"tallnewobj" : 0,
						"boxanimatetime" : 200,
						"enablehscroll" : 0,
						"enablevscroll" : 0,
						"devicewidth" : 0.0,
						"description" : "Temporally blend or smear a movie",
						"digest" : "",
						"tags" : "Vizzie Effect",
						"style" : "",
						"subpatcher_template" : "",
						"assistshowspatchername" : 0,
						"boxes" : [ 							{
								"box" : 								{
									"fontname" : "Arial Bold",
									"fontsize" : 9.0,
									"hint" : "There's more than one way to get blurry, so the SLIDR module (based on the jit.slide object) helps you create images that smear and blur over time by creating a running average for each pixel in the image. You can choose the range that new frames in your movie arrive, decay, or both for fascinating and subtle slo-mo effects.",
									"id" : "obj-83",
									"maxclass" : "comment",
									"numinlets" : 1,
									"numoutlets" : 0,
									"patching_rect" : [ 29.609558, 355.771027000000004, 37.0, 17.0 ],
									"presentation" : 1,
									"presentation_rect" : [ 3.474808, 17.0, 37.0, 17.0 ],
									"text" : "SLIDR",
									"textcolor" : [ 1.0, 1.0, 1.0, 1.0 ]
								}

							}
, 							{
								"box" : 								{
									"align" : 2,
									"bgcolor" : [ 0.3, 0.3, 0.3, 1.0 ],
									"bgoncolor" : [ 0.184314, 0.443137, 0.258824, 1.0 ],
									"fontname" : "Arial Bold",
									"fontsize" : 9.0,
									"hint" : "Click on the bar to turn the effect on or off. The image is passed through without any processing when the effect is off.",
									"id" : "obj-6",
									"legacytextcolor" : 1,
									"maxclass" : "textbutton",
									"mode" : 1,
									"numinlets" : 1,
									"numoutlets" : 3,
									"outlettype" : [ "", "", "int" ],
									"parameter_enable" : 1,
									"patching_rect" : [ 286.0, 252.0, 40.0, 20.0 ],
									"presentation" : 1,
									"presentation_rect" : [ 0.474808, 16.0, 138.0, 19.0 ],
									"saved_attribute_attributes" : 									{
										"valueof" : 										{
											"parameter_initial" : [ 1 ],
											"parameter_initial_enable" : 1,
											"parameter_invisible" : 1,
											"parameter_longname" : "range[5]",
											"parameter_mmax" : 1.0,
											"parameter_shortname" : "range",
											"parameter_type" : 3
										}

									}
,
									"text" : "OFF  ",
									"textcolor" : [ 1.0, 1.0, 1.0, 1.0 ],
									"textjustification" : 2,
									"texton" : "ON  ",
									"textoncolor" : [ 0.905882, 0.909804, 0.917647, 1.0 ],
									"usebgoncolor" : 1,
									"varname" : "FreqMode[3]"
								}

							}
, 							{
								"box" : 								{
									"fontname" : "Arial",
									"fontsize" : 12.0,
									"id" : "obj-5",
									"maxclass" : "newobj",
									"numinlets" : 1,
									"numoutlets" : 3,
									"outlettype" : [ "", "", "" ],
									"patching_rect" : [ 534.0, 290.0, 67.0, 22.0 ],
									"restore" : [ 93.0 ],
									"saved_object_attributes" : 									{
										"parameter_enable" : 0,
										"parameter_mappable" : 0
									}
,
									"text" : "pattr down",
									"varname" : "down"
								}

							}
, 							{
								"box" : 								{
									"fontname" : "Arial",
									"fontsize" : 12.0,
									"id" : "obj-40",
									"maxclass" : "newobj",
									"numinlets" : 1,
									"numoutlets" : 3,
									"outlettype" : [ "", "", "" ],
									"patching_rect" : [ 404.0, 290.0, 51.0, 22.0 ],
									"restore" : [ 91.0 ],
									"saved_object_attributes" : 									{
										"parameter_enable" : 0,
										"parameter_mappable" : 0
									}
,
									"text" : "pattr up",
									"varname" : "up"
								}

							}
, 							{
								"box" : 								{
									"fontname" : "Arial",
									"fontsize" : 12.0,
									"id" : "obj-56",
									"maxclass" : "newobj",
									"numinlets" : 2,
									"numoutlets" : 4,
									"outlettype" : [ "", "", "", "off" ],
									"patching_rect" : [ 194.0, 252.0, 85.0, 22.0 ],
									"text" : "video-handler"
								}

							}
, 							{
								"box" : 								{
									"fontname" : "Arial",
									"fontsize" : 12.0,
									"id" : "obj-18",
									"maxclass" : "newobj",
									"numinlets" : 1,
									"numoutlets" : 3,
									"outlettype" : [ "", "", "" ],
									"patching_rect" : [ 380.0, 126.0, 88.0, 22.0 ],
									"text" : "data-handler"
								}

							}
, 							{
								"box" : 								{
									"fontname" : "Arial",
									"fontsize" : 12.0,
									"id" : "obj-19",
									"maxclass" : "newobj",
									"numinlets" : 1,
									"numoutlets" : 3,
									"outlettype" : [ "", "", "" ],
									"patching_rect" : [ 514.0, 126.0, 88.0, 22.0 ],
									"text" : "data-handler"
								}

							}
, 							{
								"box" : 								{
									"comment" : "slide down (0. - 1.0, off/on)",
									"id" : "obj-30",
									"index" : 3,
									"maxclass" : "inlet",
									"numinlets" : 0,
									"numoutlets" : 1,
									"outlettype" : [ "" ],
									"patching_rect" : [ 514.0, 53.0, 25.0, 25.0 ]
								}

							}
, 							{
								"box" : 								{
									"comment" : "slide up (0. - 1.0, off/on)",
									"id" : "obj-31",
									"index" : 2,
									"maxclass" : "inlet",
									"numinlets" : 0,
									"numoutlets" : 1,
									"outlettype" : [ "" ],
									"patching_rect" : [ 380.0, 53.0, 25.0, 25.0 ]
								}

							}
, 							{
								"box" : 								{
									"comment" : "video in. 0/1 (integer) bypasses/enables processing. 'off' disables input and outputs black frames, 'on' enables input.",
									"id" : "obj-20",
									"index" : 1,
									"maxclass" : "inlet",
									"numinlets" : 0,
									"numoutlets" : 1,
									"outlettype" : [ "jit_matrix" ],
									"patching_rect" : [ 194.0, 53.0, 25.0, 25.0 ]
								}

							}
, 							{
								"box" : 								{
									"fontname" : "Arial",
									"fontsize" : 12.0,
									"id" : "obj-3",
									"maxclass" : "message",
									"numinlets" : 2,
									"numoutlets" : 1,
									"outlettype" : [ "" ],
									"patching_rect" : [ 514.0, 430.0, 87.0, 22.0 ],
									"text" : "slide_down $1"
								}

							}
, 							{
								"box" : 								{
									"fontname" : "Arial",
									"fontsize" : 12.0,
									"id" : "obj-2",
									"maxclass" : "message",
									"numinlets" : 2,
									"numoutlets" : 1,
									"outlettype" : [ "" ],
									"patching_rect" : [ 380.0, 430.0, 72.0, 22.0 ],
									"text" : "slide_up $1"
								}

							}
, 							{
								"box" : 								{
									"comment" : "video out",
									"id" : "obj-14",
									"index" : 1,
									"maxclass" : "outlet",
									"numinlets" : 1,
									"numoutlets" : 0,
									"patching_rect" : [ 194.0, 705.0, 25.0, 25.0 ]
								}

							}
, 							{
								"box" : 								{
									"fontname" : "Arial",
									"fontsize" : 12.0,
									"id" : "obj-11",
									"maxclass" : "newobj",
									"numinlets" : 1,
									"numoutlets" : 2,
									"outlettype" : [ "jit_matrix", "" ],
									"patching_rect" : [ 234.0, 483.0, 47.0, 22.0 ],
									"text" : "jit.slide"
								}

							}
, 							{
								"box" : 								{
									"fontname" : "Arial",
									"fontsize" : 12.0,
									"id" : "obj-9",
									"maxclass" : "newobj",
									"numinlets" : 6,
									"numoutlets" : 1,
									"outlettype" : [ "" ],
									"patching_rect" : [ 514.0, 334.0, 99.0, 22.0 ],
									"text" : "scale 0. 1. 0 240"
								}

							}
, 							{
								"box" : 								{
									"fontname" : "Arial",
									"fontsize" : 12.0,
									"id" : "obj-8",
									"maxclass" : "newobj",
									"numinlets" : 6,
									"numoutlets" : 1,
									"outlettype" : [ "" ],
									"patching_rect" : [ 380.0, 334.0, 99.0, 22.0 ],
									"text" : "scale 0. 1. 0 240"
								}

							}
, 							{
								"box" : 								{
									"activebgcolor" : [ 0.1, 0.1, 0.1, 1.0 ],
									"activebgoncolor" : [ 0.184, 0.443, 0.259, 1.0 ],
									"bgcolor" : [ 0.1, 0.1, 0.1, 1.0 ],
									"bgoncolor" : [ 0.184, 0.443, 0.259, 1.0 ],
									"bordercolor" : [ 0.184, 0.443, 0.259, 1.0 ],
									"focusbordercolor" : [ 0.184, 0.443, 0.259, 1.0 ],
									"hint" : "Data received in this inlet sets the value for the slide up control.",
									"id" : "obj-21",
									"ignoreclick" : 1,
									"maxclass" : "live.toggle",
									"numinlets" : 1,
									"numoutlets" : 1,
									"outlettype" : [ "" ],
									"parameter_enable" : 1,
									"patching_rect" : [ 491.0, 126.0, 15.0, 15.0 ],
									"presentation" : 1,
									"presentation_rect" : [ 64.0, 3.0, 9.742592, 9.742592 ],
									"rounded" : 15.0,
									"saved_attribute_attributes" : 									{
										"activebgcolor" : 										{
											"expression" : ""
										}
,
										"activebgoncolor" : 										{
											"expression" : ""
										}
,
										"bgcolor" : 										{
											"expression" : ""
										}
,
										"bgoncolor" : 										{
											"expression" : ""
										}
,
										"bordercolor" : 										{
											"expression" : ""
										}
,
										"focusbordercolor" : 										{
											"expression" : ""
										}
,
										"valueof" : 										{
											"parameter_enum" : [ "off", "on" ],
											"parameter_initial" : [ 1 ],
											"parameter_initial_enable" : 1,
											"parameter_longname" : "pictctrl[9]",
											"parameter_mmax" : 1,
											"parameter_shortname" : "pictctrl[1]",
											"parameter_type" : 2
										}

									}
,
									"varname" : "pictctrl[5]"
								}

							}
, 							{
								"box" : 								{
									"activebgcolor" : [ 0.1, 0.1, 0.1, 1.0 ],
									"activebgoncolor" : [ 0.184, 0.443, 0.259, 1.0 ],
									"bgcolor" : [ 0.1, 0.1, 0.1, 1.0 ],
									"bgoncolor" : [ 0.184, 0.443, 0.259, 1.0 ],
									"bordercolor" : [ 0.184, 0.443, 0.259, 1.0 ],
									"focusbordercolor" : [ 0.184, 0.443, 0.259, 1.0 ],
									"hint" : "Data received in this inlet sets the value for the slide down control.",
									"id" : "obj-28",
									"ignoreclick" : 1,
									"maxclass" : "live.toggle",
									"numinlets" : 1,
									"numoutlets" : 1,
									"outlettype" : [ "" ],
									"parameter_enable" : 1,
									"patching_rect" : [ 605.0, 129.0, 15.0, 15.0 ],
									"presentation" : 1,
									"presentation_rect" : [ 124.474791999999994, 3.0, 9.742592, 9.742592 ],
									"rounded" : 15.0,
									"saved_attribute_attributes" : 									{
										"activebgcolor" : 										{
											"expression" : ""
										}
,
										"activebgoncolor" : 										{
											"expression" : ""
										}
,
										"bgcolor" : 										{
											"expression" : ""
										}
,
										"bgoncolor" : 										{
											"expression" : ""
										}
,
										"bordercolor" : 										{
											"expression" : ""
										}
,
										"focusbordercolor" : 										{
											"expression" : ""
										}
,
										"valueof" : 										{
											"parameter_enum" : [ "off", "on" ],
											"parameter_initial" : [ 1 ],
											"parameter_initial_enable" : 1,
											"parameter_longname" : "pictctrl[3]",
											"parameter_mmax" : 1,
											"parameter_shortname" : "pictctrl[1]",
											"parameter_type" : 2
										}

									}
,
									"varname" : "pictctrl[4]"
								}

							}
, 							{
								"box" : 								{
									"activedialcolor" : [ 0.184, 0.741, 0.0, 1.0 ],
									"activeneedlecolor" : [ 1.0, 1.0, 1.0, 0.7 ],
									"hint" : "Sets the amount of smearing during downward value movements.",
									"id" : "obj-1",
									"maxclass" : "live.dial",
									"numinlets" : 1,
									"numoutlets" : 2,
									"outlettype" : [ "", "float" ],
									"parameter_enable" : 1,
									"patching_rect" : [ 514.0, 365.0, 44.0, 48.0 ],
									"presentation" : 1,
									"presentation_rect" : [ 64.474807999999996, 49.0, 60.0, 48.0 ],
									"saved_attribute_attributes" : 									{
										"activedialcolor" : 										{
											"expression" : ""
										}
,
										"activeneedlecolor" : 										{
											"expression" : ""
										}
,
										"textcolor" : 										{
											"expression" : ""
										}
,
										"valueof" : 										{
											"parameter_initial" : [ 30 ],
											"parameter_initial_enable" : 1,
											"parameter_longname" : "slide down",
											"parameter_mmax" : 240.0,
											"parameter_shortname" : "slide down",
											"parameter_type" : 1,
											"parameter_unitstyle" : 0
										}

									}
,
									"textcolor" : [ 1.0, 1.0, 1.0, 0.7 ],
									"varname" : "control[3]"
								}

							}
, 							{
								"box" : 								{
									"activedialcolor" : [ 0.184, 0.741, 0.0, 1.0 ],
									"activeneedlecolor" : [ 1.0, 1.0, 1.0, 0.7 ],
									"hint" : "Sets the amount of smearing during upward value movements.",
									"id" : "obj-50",
									"maxclass" : "live.dial",
									"numinlets" : 1,
									"numoutlets" : 2,
									"outlettype" : [ "", "float" ],
									"parameter_enable" : 1,
									"patching_rect" : [ 380.0, 365.0, 44.0, 48.0 ],
									"presentation" : 1,
									"presentation_rect" : [ 6.128723, 49.0, 60.0, 48.0 ],
									"saved_attribute_attributes" : 									{
										"activedialcolor" : 										{
											"expression" : ""
										}
,
										"activeneedlecolor" : 										{
											"expression" : ""
										}
,
										"textcolor" : 										{
											"expression" : ""
										}
,
										"valueof" : 										{
											"parameter_initial" : [ 30 ],
											"parameter_initial_enable" : 1,
											"parameter_longname" : "slide up",
											"parameter_mmax" : 240.0,
											"parameter_shortname" : "slide up",
											"parameter_type" : 1,
											"parameter_unitstyle" : 0
										}

									}
,
									"textcolor" : [ 1.0, 1.0, 1.0, 0.7 ],
									"varname" : "control[2]"
								}

							}
, 							{
								"box" : 								{
									"fontname" : "Arial Bold",
									"fontsize" : 9.0,
									"hint" : "Video output",
									"id" : "obj-43",
									"maxclass" : "comment",
									"numinlets" : 1,
									"numoutlets" : 0,
									"patching_rect" : [ 34.109558, 179.498412999999999, 41.0, 17.0 ],
									"presentation" : 1,
									"presentation_rect" : [ 3.474808, 111.0, 35.0, 17.0 ],
									"text" : "Video",
									"textcolor" : [ 1.0, 1.0, 1.0, 1.0 ]
								}

							}
, 							{
								"box" : 								{
									"fontname" : "Arial Bold",
									"fontsize" : 9.0,
									"hint" : "Video input",
									"id" : "obj-66",
									"maxclass" : "comment",
									"numinlets" : 1,
									"numoutlets" : 0,
									"patching_rect" : [ 34.109558, 52.863525000000003, 41.0, 17.0 ],
									"presentation" : 1,
									"presentation_rect" : [ 3.474808, 0.0, 35.0, 17.0 ],
									"text" : "Video",
									"textcolor" : [ 1.0, 1.0, 1.0, 1.0 ]
								}

							}
, 							{
								"box" : 								{
									"angle" : 0.0,
									"bgcolor" : [ 0.184, 0.443, 0.259, 1.0 ],
									"id" : "obj-109",
									"maxclass" : "panel",
									"mode" : 0,
									"numinlets" : 1,
									"numoutlets" : 0,
									"patching_rect" : [ 29.609558, 109.739990000000006, 64.0, 64.0 ],
									"presentation" : 1,
									"presentation_rect" : [ 0.474808, 16.0, 437.268768000000023, 19.0 ],
									"proportion" : 0.39,
									"rounded" : 0
								}

							}
, 							{
								"box" : 								{
									"angle" : 0.0,
									"bgcolor" : [ 0.0, 0.0, 0.0, 1.0 ],
									"id" : "obj-110",
									"maxclass" : "panel",
									"mode" : 0,
									"numinlets" : 1,
									"numoutlets" : 0,
									"patching_rect" : [ 29.609558, 42.006988999999997, 64.0, 64.0 ],
									"presentation" : 1,
									"presentation_rect" : [ 0.474808, 0.0, 437.268768000000023, 17.0 ],
									"proportion" : 0.39,
									"rounded" : 0
								}

							}
, 							{
								"box" : 								{
									"angle" : 0.0,
									"bgcolor" : [ 0.0, 0.0, 0.0, 1.0 ],
									"id" : "obj-111",
									"maxclass" : "panel",
									"mode" : 0,
									"numinlets" : 1,
									"numoutlets" : 0,
									"patching_rect" : [ 29.609558, 323.569457999999997, 64.0, 64.0 ],
									"presentation" : 1,
									"presentation_rect" : [ 0.474808, 110.0, 437.268768000000023, 35.433025000000001 ],
									"proportion" : 0.39,
									"rounded" : 0
								}

							}
, 							{
								"box" : 								{
									"angle" : 0.0,
									"bgcolor" : [ 0.137255, 0.145098, 0.160784, 0.65 ],
									"id" : "obj-112",
									"maxclass" : "panel",
									"mode" : 0,
									"numinlets" : 1,
									"numoutlets" : 0,
									"patching_rect" : [ 29.609558, 252.0, 64.0, 64.0 ],
									"presentation" : 1,
									"presentation_rect" : [ 0.474808, 34.0, 437.268768000000023, 111.433029000000005 ],
									"proportion" : 0.39,
									"rounded" : 0
								}

							}
, 							{
								"box" : 								{
									"angle" : 0.0,
									"bgcolor" : [ 0.367404, 0.389405, 0.430238, 1.0 ],
									"id" : "obj-113",
									"maxclass" : "panel",
									"mode" : 0,
									"numinlets" : 1,
									"numoutlets" : 0,
									"patching_rect" : [ 29.609558, 179.498412999999999, 64.0, 64.0 ],
									"presentation" : 1,
									"presentation_rect" : [ 0.474808, 16.0, 437.268768000000023, 129.433029000000005 ],
									"proportion" : 0.39
								}

							}
 ],
						"lines" : [ 							{
								"patchline" : 								{
									"destination" : [ "obj-3", 0 ],
									"source" : [ "obj-1", 0 ]
								}

							}
, 							{
								"patchline" : 								{
									"destination" : [ "obj-14", 0 ],
									"source" : [ "obj-11", 0 ]
								}

							}
, 							{
								"patchline" : 								{
									"destination" : [ "obj-21", 0 ],
									"midpoints" : [ 424.0, 150.0, 483.0, 150.0, 483.0, 111.0, 500.0, 111.0 ],
									"source" : [ "obj-18", 1 ]
								}

							}
, 							{
								"patchline" : 								{
									"destination" : [ "obj-8", 0 ],
									"source" : [ "obj-18", 0 ]
								}

							}
, 							{
								"patchline" : 								{
									"destination" : [ "obj-28", 0 ],
									"midpoints" : [ 558.0, 152.0, 618.0, 152.0, 618.0, 113.0, 614.0, 113.0 ],
									"source" : [ "obj-19", 1 ]
								}

							}
, 							{
								"patchline" : 								{
									"destination" : [ "obj-9", 0 ],
									"source" : [ "obj-19", 0 ]
								}

							}
, 							{
								"patchline" : 								{
									"destination" : [ "obj-11", 0 ],
									"source" : [ "obj-2", 0 ]
								}

							}
, 							{
								"patchline" : 								{
									"destination" : [ "obj-56", 0 ],
									"source" : [ "obj-20", 0 ]
								}

							}
, 							{
								"patchline" : 								{
									"destination" : [ "obj-11", 0 ],
									"source" : [ "obj-3", 0 ]
								}

							}
, 							{
								"patchline" : 								{
									"destination" : [ "obj-19", 0 ],
									"source" : [ "obj-30", 0 ]
								}

							}
, 							{
								"patchline" : 								{
									"destination" : [ "obj-18", 0 ],
									"source" : [ "obj-31", 0 ]
								}

							}
, 							{
								"patchline" : 								{
									"destination" : [ "obj-50", 0 ],
									"source" : [ "obj-40", 1 ]
								}

							}
, 							{
								"patchline" : 								{
									"destination" : [ "obj-1", 0 ],
									"source" : [ "obj-5", 1 ]
								}

							}
, 							{
								"patchline" : 								{
									"destination" : [ "obj-2", 0 ],
									"source" : [ "obj-50", 0 ]
								}

							}
, 							{
								"patchline" : 								{
									"destination" : [ "obj-11", 0 ],
									"source" : [ "obj-56", 1 ]
								}

							}
, 							{
								"patchline" : 								{
									"destination" : [ "obj-14", 0 ],
									"source" : [ "obj-56", 0 ]
								}

							}
, 							{
								"patchline" : 								{
									"destination" : [ "obj-6", 0 ],
									"source" : [ "obj-56", 2 ]
								}

							}
, 							{
								"patchline" : 								{
									"destination" : [ "obj-56", 1 ],
									"source" : [ "obj-6", 0 ]
								}

							}
, 							{
								"patchline" : 								{
									"destination" : [ "obj-50", 0 ],
									"source" : [ "obj-8", 0 ]
								}

							}
, 							{
								"patchline" : 								{
									"destination" : [ "obj-1", 0 ],
									"source" : [ "obj-9", 0 ]
								}

							}
 ],
						"bgcolor" : [ 0.5, 0.8, 0.5, 1.0 ]
					}
,
					"patching_rect" : [ 11.0, 443.0, 139.0, 131.0 ],
					"varname" : "slidr",
					"viewvisibility" : 1
				}

			}
, 			{
				"box" : 				{
					"args" : [ "interpol8r" ],
					"bgmode" : 0,
					"border" : 0,
					"clickthrough" : 0,
					"embed" : 1,
					"enablehscroll" : 0,
					"enablevscroll" : 0,
					"id" : "obj-15",
					"lockeddragscroll" : 0,
					"lockedsize" : 0,
					"maxclass" : "bpatcher",
					"numinlets" : 5,
					"numoutlets" : 1,
					"offset" : [ 0.0, 0.0 ],
					"outlettype" : [ "jit_matrix" ],
					"patcher" : 					{
						"fileversion" : 1,
						"appversion" : 						{
							"major" : 8,
							"minor" : 5,
							"revision" : 3,
							"architecture" : "x64",
							"modernui" : 1
						}
,
						"classnamespace" : "box",
						"rect" : [ 34.0, 79.0, 1087.0, 860.0 ],
						"bglocked" : 0,
						"openinpresentation" : 1,
						"default_fontsize" : 12.0,
						"default_fontface" : 0,
						"default_fontname" : "Arial",
						"gridonopen" : 1,
						"gridsize" : [ 8.0, 8.0 ],
						"gridsnaponopen" : 1,
						"objectsnaponopen" : 1,
						"statusbarvisible" : 2,
						"toolbarvisible" : 1,
						"lefttoolbarpinned" : 0,
						"toptoolbarpinned" : 0,
						"righttoolbarpinned" : 0,
						"bottomtoolbarpinned" : 0,
						"toolbars_unpinned_last_save" : 0,
						"tallnewobj" : 0,
						"boxanimatetime" : 200,
						"enablehscroll" : 0,
						"enablevscroll" : 0,
						"devicewidth" : 0.0,
						"description" : "Add interpolation effects to a movie",
						"digest" : "",
						"tags" : "Vizzie Effect",
						"style" : "",
						"subpatcher_template" : "",
						"assistshowspatchername" : 0,
						"boxes" : [ 							{
								"box" : 								{
									"fontname" : "Arial",
									"fontsize" : 12.0,
									"id" : "obj-7",
									"maxclass" : "newobj",
									"numinlets" : 2,
									"numoutlets" : 1,
									"outlettype" : [ "float" ],
									"patching_rect" : [ 582.0, 286.5, 32.5, 22.0 ],
									"text" : "!- 1."
								}

							}
, 							{
								"box" : 								{
									"fontname" : "Arial",
									"fontsize" : 12.0,
									"id" : "obj-3",
									"maxclass" : "newobj",
									"numinlets" : 2,
									"numoutlets" : 1,
									"outlettype" : [ "float" ],
									"patching_rect" : [ 445.0, 286.5, 32.5, 22.0 ],
									"text" : "!- 1."
								}

							}
, 							{
								"box" : 								{
									"fontname" : "Arial",
									"fontsize" : 12.0,
									"id" : "obj-1",
									"maxclass" : "newobj",
									"numinlets" : 1,
									"numoutlets" : 1,
									"outlettype" : [ "" ],
									"patching_rect" : [ 582.0, 334.5, 118.0, 22.0 ],
									"text" : "expr $f1*$f1*$f1*$f1"
								}

							}
, 							{
								"box" : 								{
									"fontname" : "Arial",
									"fontsize" : 12.0,
									"id" : "obj-4",
									"maxclass" : "newobj",
									"numinlets" : 1,
									"numoutlets" : 1,
									"outlettype" : [ "" ],
									"patching_rect" : [ 445.0, 334.5, 118.0, 22.0 ],
									"text" : "expr $f1*$f1*$f1*$f1"
								}

							}
, 							{
								"box" : 								{
									"activedialcolor" : [ 0.184, 0.741, 0.0, 1.0 ],
									"activeneedlecolor" : [ 1.0, 1.0, 1.0, 0.7 ],
									"hint" : "Sets the distance between the 'corners' between which the \"interpolation\" takes place.",
									"id" : "obj-24",
									"maxclass" : "live.dial",
									"numinlets" : 1,
									"numoutlets" : 2,
									"outlettype" : [ "", "float" ],
									"parameter_enable" : 1,
									"patching_rect" : [ 582.0, 231.5, 44.0, 48.0 ],
									"presentation" : 1,
									"presentation_rect" : [ 64.474807999999996, 50.0, 60.0, 48.0 ],
									"saved_attribute_attributes" : 									{
										"activedialcolor" : 										{
											"expression" : ""
										}
,
										"activeneedlecolor" : 										{
											"expression" : ""
										}
,
										"textcolor" : 										{
											"expression" : ""
										}
,
										"valueof" : 										{
											"parameter_initial" : [ 0.125 ],
											"parameter_initial_enable" : 1,
											"parameter_longname" : "vertical",
											"parameter_mmax" : 1.0,
											"parameter_shortname" : "vertical",
											"parameter_type" : 0,
											"parameter_unitstyle" : 1
										}

									}
,
									"textcolor" : [ 1.0, 1.0, 1.0, 0.7 ],
									"varname" : "control[2]"
								}

							}
, 							{
								"box" : 								{
									"activedialcolor" : [ 0.184, 0.741, 0.0, 1.0 ],
									"activeneedlecolor" : [ 1.0, 1.0, 1.0, 0.7 ],
									"hint" : "Sets the distance between the 'corners' between which the \"interpolation\" takes place.",
									"id" : "obj-68",
									"maxclass" : "live.dial",
									"numinlets" : 1,
									"numoutlets" : 2,
									"outlettype" : [ "", "float" ],
									"parameter_enable" : 1,
									"patching_rect" : [ 445.0, 231.5, 44.0, 48.0 ],
									"presentation" : 1,
									"presentation_rect" : [ 3.474808, 50.0, 60.0, 48.0 ],
									"saved_attribute_attributes" : 									{
										"activedialcolor" : 										{
											"expression" : ""
										}
,
										"activeneedlecolor" : 										{
											"expression" : ""
										}
,
										"textcolor" : 										{
											"expression" : ""
										}
,
										"valueof" : 										{
											"parameter_initial" : [ 0.25 ],
											"parameter_initial_enable" : 1,
											"parameter_longname" : "horizontal",
											"parameter_mmax" : 1.0,
											"parameter_shortname" : "horizontal",
											"parameter_type" : 0,
											"parameter_unitstyle" : 1
										}

									}
,
									"textcolor" : [ 1.0, 1.0, 1.0, 0.7 ],
									"varname" : "control[1]"
								}

							}
, 							{
								"box" : 								{
									"fontname" : "Arial",
									"fontsize" : 12.0,
									"id" : "obj-14",
									"maxclass" : "newobj",
									"numinlets" : 6,
									"numoutlets" : 1,
									"outlettype" : [ "" ],
									"patching_rect" : [ 445.0, 367.569457999999997, 99.0, 22.0 ],
									"text" : "scale 0. 1. 1 640"
								}

							}
, 							{
								"box" : 								{
									"fontname" : "Arial",
									"fontsize" : 12.0,
									"id" : "obj-12",
									"maxclass" : "newobj",
									"numinlets" : 1,
									"numoutlets" : 2,
									"outlettype" : [ "int", "int" ],
									"patching_rect" : [ 1212.0, 79.0, 61.0, 22.0 ],
									"text" : "unpack i i"
								}

							}
, 							{
								"box" : 								{
									"fontname" : "Arial",
									"fontsize" : 12.0,
									"id" : "obj-10",
									"maxclass" : "newobj",
									"numinlets" : 1,
									"numoutlets" : 0,
									"patching_rect" : [ 1140.0, 79.0, 55.0, 22.0 ],
									"text" : "s askme"
								}

							}
, 							{
								"box" : 								{
									"fontname" : "Arial",
									"fontsize" : 12.0,
									"id" : "obj-2",
									"maxclass" : "newobj",
									"numinlets" : 1,
									"numoutlets" : 1,
									"outlettype" : [ "bang" ],
									"patching_rect" : [ 1140.0, 50.0, 60.0, 22.0 ],
									"text" : "loadbang"
								}

							}
, 							{
								"box" : 								{
									"fontname" : "Arial",
									"fontsize" : 12.0,
									"id" : "obj-8",
									"maxclass" : "newobj",
									"numinlets" : 0,
									"numoutlets" : 1,
									"outlettype" : [ "" ],
									"patching_rect" : [ 1212.0, 50.0, 77.0, 22.0 ],
									"text" : "r output_dim"
								}

							}
, 							{
								"box" : 								{
									"fontname" : "Arial",
									"fontsize" : 12.0,
									"id" : "obj-6",
									"maxclass" : "newobj",
									"numinlets" : 6,
									"numoutlets" : 1,
									"outlettype" : [ "" ],
									"patching_rect" : [ 962.0, 203.501587000000001, 105.0, 22.0 ],
									"text" : "scale 0. 1. 0. 100."
								}

							}
, 							{
								"box" : 								{
									"fontname" : "Arial",
									"fontsize" : 12.0,
									"id" : "obj-11",
									"maxclass" : "newobj",
									"numinlets" : 6,
									"numoutlets" : 1,
									"outlettype" : [ "" ],
									"patching_rect" : [ 582.0, 367.569457999999997, 99.0, 22.0 ],
									"text" : "scale 0. 1. 1 640"
								}

							}
, 							{
								"box" : 								{
									"fontname" : "Arial",
									"fontsize" : 11.595186999999999,
									"id" : "obj-13",
									"maxclass" : "message",
									"numinlets" : 2,
									"numoutlets" : 1,
									"outlettype" : [ "" ],
									"patching_rect" : [ 582.0, 456.0, 61.0, 21.0 ],
									"text" : "y_step $1"
								}

							}
, 							{
								"box" : 								{
									"fontname" : "Arial",
									"fontsize" : 12.0,
									"id" : "obj-19",
									"maxclass" : "newobj",
									"numinlets" : 1,
									"numoutlets" : 3,
									"outlettype" : [ "", "", "" ],
									"patching_rect" : [ 599.0, 159.0, 73.0, 22.0 ],
									"restore" : [ 1.0 ],
									"saved_object_attributes" : 									{
										"parameter_enable" : 0,
										"parameter_mappable" : 0
									}
,
									"text" : "pattr y_step",
									"varname" : "y_step"
								}

							}
, 							{
								"box" : 								{
									"fontname" : "Arial",
									"fontsize" : 12.0,
									"id" : "obj-20",
									"maxclass" : "newobj",
									"numinlets" : 1,
									"numoutlets" : 3,
									"outlettype" : [ "", "", "" ],
									"patching_rect" : [ 582.0, 123.0, 88.0, 22.0 ],
									"text" : "data-handler"
								}

							}
, 							{
								"box" : 								{
									"comment" : "x/y offset control in (0. - 1.0, off/on)",
									"id" : "obj-22",
									"index" : 3,
									"maxclass" : "inlet",
									"numinlets" : 0,
									"numoutlets" : 1,
									"outlettype" : [ "" ],
									"patching_rect" : [ 582.0, 50.0, 25.0, 25.0 ]
								}

							}
, 							{
								"box" : 								{
									"activebgcolor" : [ 0.1, 0.1, 0.1, 1.0 ],
									"activebgoncolor" : [ 0.184, 0.443, 0.259, 1.0 ],
									"bgcolor" : [ 0.1, 0.1, 0.1, 1.0 ],
									"bgoncolor" : [ 0.184, 0.443, 0.259, 1.0 ],
									"bordercolor" : [ 0.184, 0.443, 0.259, 1.0 ],
									"focusbordercolor" : [ 0.184, 0.443, 0.259, 1.0 ],
									"hint" : "Data received in this inlet sets the value for the y step control.",
									"id" : "obj-51",
									"ignoreclick" : 1,
									"maxclass" : "live.toggle",
									"numinlets" : 1,
									"numoutlets" : 1,
									"outlettype" : [ "" ],
									"parameter_enable" : 1,
									"patching_rect" : [ 693.0, 123.0, 15.0, 15.0 ],
									"presentation" : 1,
									"presentation_rect" : [ 89.0, 3.0, 9.742592, 9.742592 ],
									"rounded" : 15.0,
									"saved_attribute_attributes" : 									{
										"activebgcolor" : 										{
											"expression" : ""
										}
,
										"activebgoncolor" : 										{
											"expression" : ""
										}
,
										"bgcolor" : 										{
											"expression" : ""
										}
,
										"bgoncolor" : 										{
											"expression" : ""
										}
,
										"bordercolor" : 										{
											"expression" : ""
										}
,
										"focusbordercolor" : 										{
											"expression" : ""
										}
,
										"valueof" : 										{
											"parameter_enum" : [ "off", "on" ],
											"parameter_initial" : [ 1 ],
											"parameter_initial_enable" : 1,
											"parameter_longname" : "pictctrl[5]",
											"parameter_mmax" : 1,
											"parameter_shortname" : "pictctrl[1]",
											"parameter_type" : 2
										}

									}
,
									"varname" : "pictctrl[6]"
								}

							}
, 							{
								"box" : 								{
									"fontname" : "Arial",
									"fontsize" : 12.0,
									"id" : "obj-43",
									"maxclass" : "newobj",
									"numinlets" : 1,
									"numoutlets" : 3,
									"outlettype" : [ "", "", "" ],
									"patching_rect" : [ 919.0, 123.0, 88.0, 22.0 ],
									"text" : "data-handler"
								}

							}
, 							{
								"box" : 								{
									"comment" : "bound mode select (0. - 1.0, off/on)",
									"id" : "obj-45",
									"index" : 5,
									"maxclass" : "inlet",
									"numinlets" : 0,
									"numoutlets" : 1,
									"outlettype" : [ "" ],
									"patching_rect" : [ 919.0, 50.0, 25.0, 25.0 ]
								}

							}
, 							{
								"box" : 								{
									"activebgcolor" : [ 0.1, 0.1, 0.1, 1.0 ],
									"activebgoncolor" : [ 0.184, 0.443, 0.259, 1.0 ],
									"bgcolor" : [ 0.1, 0.1, 0.1, 1.0 ],
									"bgoncolor" : [ 0.184, 0.443, 0.259, 1.0 ],
									"bordercolor" : [ 0.184, 0.443, 0.259, 1.0 ],
									"focusbordercolor" : [ 0.184, 0.443, 0.259, 1.0 ],
									"hint" : "Data received in this inlet sets the bound mode.",
									"id" : "obj-47",
									"ignoreclick" : 1,
									"maxclass" : "live.toggle",
									"numinlets" : 1,
									"numoutlets" : 1,
									"outlettype" : [ "" ],
									"parameter_enable" : 1,
									"patching_rect" : [ 1030.0, 123.0, 15.0, 15.0 ],
									"presentation" : 1,
									"presentation_rect" : [ 174.0, 3.0, 9.742592, 9.742592 ],
									"rounded" : 15.0,
									"saved_attribute_attributes" : 									{
										"activebgcolor" : 										{
											"expression" : ""
										}
,
										"activebgoncolor" : 										{
											"expression" : ""
										}
,
										"bgcolor" : 										{
											"expression" : ""
										}
,
										"bgoncolor" : 										{
											"expression" : ""
										}
,
										"bordercolor" : 										{
											"expression" : ""
										}
,
										"focusbordercolor" : 										{
											"expression" : ""
										}
,
										"valueof" : 										{
											"parameter_enum" : [ "off", "on" ],
											"parameter_initial" : [ 1 ],
											"parameter_initial_enable" : 1,
											"parameter_longname" : "pictctrl[7]",
											"parameter_mmax" : 1,
											"parameter_shortname" : "pictctrl[1]",
											"parameter_type" : 2
										}

									}
,
									"varname" : "pictctrl[9]"
								}

							}
, 							{
								"box" : 								{
									"fontname" : "Arial",
									"fontsize" : 12.0,
									"id" : "obj-25",
									"maxclass" : "newobj",
									"numinlets" : 6,
									"numoutlets" : 1,
									"outlettype" : [ "" ],
									"patching_rect" : [ 919.0, 191.0, 86.5, 22.0 ],
									"text" : "scale 0. 1. 0 3"
								}

							}
, 							{
								"box" : 								{
									"fontname" : "Arial",
									"fontsize" : 12.0,
									"id" : "obj-40",
									"maxclass" : "newobj",
									"numinlets" : 1,
									"numoutlets" : 3,
									"outlettype" : [ "", "", "" ],
									"patching_rect" : [ 954.0, 159.0, 68.0, 22.0 ],
									"restore" : [ 0.0 ],
									"saved_object_attributes" : 									{
										"parameter_enable" : 0,
										"parameter_mappable" : 0
									}
,
									"text" : "pattr mode",
									"varname" : "mode"
								}

							}
, 							{
								"box" : 								{
									"fontname" : "Arial",
									"fontsize" : 12.0,
									"id" : "obj-38",
									"maxclass" : "newobj",
									"numinlets" : 1,
									"numoutlets" : 3,
									"outlettype" : [ "", "", "" ],
									"patching_rect" : [ 764.0, 159.0, 105.0, 22.0 ],
									"restore" : [ 6.0 ],
									"saved_object_attributes" : 									{
										"parameter_enable" : 0,
										"parameter_mappable" : 0
									}
,
									"text" : "pattr interp_mode",
									"varname" : "interp_mode"
								}

							}
, 							{
								"box" : 								{
									"fontname" : "Arial",
									"fontsize" : 12.0,
									"id" : "obj-39",
									"maxclass" : "newobj",
									"numinlets" : 1,
									"numoutlets" : 3,
									"outlettype" : [ "", "", "" ],
									"patching_rect" : [ 464.5, 159.0, 73.0, 22.0 ],
									"restore" : [ 0.2 ],
									"saved_object_attributes" : 									{
										"parameter_enable" : 0,
										"parameter_mappable" : 0
									}
,
									"text" : "pattr x_step",
									"varname" : "x_step"
								}

							}
, 							{
								"box" : 								{
									"fontname" : "Arial",
									"fontsize" : 12.0,
									"id" : "obj-36",
									"maxclass" : "newobj",
									"numinlets" : 1,
									"numoutlets" : 3,
									"outlettype" : [ "", "", "" ],
									"patching_rect" : [ 747.0, 123.0, 88.0, 22.0 ],
									"text" : "data-handler"
								}

							}
, 							{
								"box" : 								{
									"comment" : "interpolation mode (0. - 1.0, off/on)",
									"id" : "obj-42",
									"index" : 4,
									"maxclass" : "inlet",
									"numinlets" : 0,
									"numoutlets" : 1,
									"outlettype" : [ "" ],
									"patching_rect" : [ 747.0, 50.0, 25.0, 25.0 ]
								}

							}
, 							{
								"box" : 								{
									"fontname" : "Arial",
									"fontsize" : 12.0,
									"id" : "obj-56",
									"maxclass" : "newobj",
									"numinlets" : 2,
									"numoutlets" : 4,
									"outlettype" : [ "", "", "", "off" ],
									"patching_rect" : [ 204.0, 245.0, 85.0, 22.0 ],
									"text" : "video-handler"
								}

							}
, 							{
								"box" : 								{
									"fontname" : "Arial",
									"fontsize" : 12.0,
									"id" : "obj-5",
									"maxclass" : "newobj",
									"numinlets" : 1,
									"numoutlets" : 3,
									"outlettype" : [ "", "", "" ],
									"patching_rect" : [ 445.0, 123.0, 88.0, 22.0 ],
									"text" : "data-handler"
								}

							}
, 							{
								"box" : 								{
									"comment" : "x/y offset control in (0. - 1.0, off/on)",
									"id" : "obj-29",
									"index" : 2,
									"maxclass" : "inlet",
									"numinlets" : 0,
									"numoutlets" : 1,
									"outlettype" : [ "" ],
									"patching_rect" : [ 445.0, 50.0, 25.0, 25.0 ]
								}

							}
, 							{
								"box" : 								{
									"comment" : "video in. 0/1 (integer) bypasses/enables processing. 'off' disables input and outputs black frames, 'on' enables input.",
									"id" : "obj-33",
									"index" : 1,
									"maxclass" : "inlet",
									"numinlets" : 0,
									"numoutlets" : 1,
									"outlettype" : [ "jit_matrix" ],
									"patching_rect" : [ 204.0, 50.0, 25.0, 25.0 ]
								}

							}
, 							{
								"box" : 								{
									"fontname" : "Arial",
									"fontsize" : 12.0,
									"id" : "obj-34",
									"maxclass" : "newobj",
									"numinlets" : 6,
									"numoutlets" : 1,
									"outlettype" : [ "" ],
									"patching_rect" : [ 748.0, 191.0, 92.0, 22.0 ],
									"text" : "scale 0. 1. 0 15"
								}

							}
, 							{
								"box" : 								{
									"comment" : "video out",
									"id" : "obj-9",
									"index" : 1,
									"maxclass" : "outlet",
									"numinlets" : 1,
									"numoutlets" : 0,
									"patching_rect" : [ 204.0, 795.0, 25.0, 25.0 ]
								}

							}
, 							{
								"box" : 								{
									"fontname" : "Arial",
									"fontsize" : 11.595186999999999,
									"id" : "obj-21",
									"maxclass" : "message",
									"numinlets" : 2,
									"numoutlets" : 1,
									"outlettype" : [ "" ],
									"patching_rect" : [ 966.0, 447.0, 79.0, 21.0 ],
									"text" : "colormode $1"
								}

							}
, 							{
								"box" : 								{
									"fontname" : "Arial",
									"fontsize" : 11.595186999999999,
									"id" : "obj-70",
									"maxclass" : "message",
									"numinlets" : 2,
									"numoutlets" : 1,
									"outlettype" : [ "" ],
									"patching_rect" : [ 747.0, 456.0, 56.0, 21.0 ],
									"text" : "mode $1"
								}

							}
, 							{
								"box" : 								{
									"fontname" : "Arial",
									"fontsize" : 11.595186999999999,
									"id" : "obj-71",
									"maxclass" : "message",
									"numinlets" : 2,
									"numoutlets" : 1,
									"outlettype" : [ "" ],
									"patching_rect" : [ 445.0, 456.0, 59.0, 21.0 ],
									"text" : "x_step $1"
								}

							}
, 							{
								"box" : 								{
									"fontname" : "Arial",
									"fontsize" : 11.595186999999999,
									"id" : "obj-86",
									"maxclass" : "newobj",
									"numinlets" : 1,
									"numoutlets" : 2,
									"outlettype" : [ "jit_matrix", "" ],
									"patching_rect" : [ 240.0, 501.0, 92.0, 21.0 ],
									"text" : "jit.plur @gang 1"
								}

							}
, 							{
								"box" : 								{
									"activebgcolor" : [ 0.1, 0.1, 0.1, 1.0 ],
									"activebgoncolor" : [ 0.184, 0.443, 0.259, 1.0 ],
									"bgcolor" : [ 0.1, 0.1, 0.1, 1.0 ],
									"bgoncolor" : [ 0.184, 0.443, 0.259, 1.0 ],
									"bordercolor" : [ 0.184, 0.443, 0.259, 1.0 ],
									"focusbordercolor" : [ 0.184, 0.443, 0.259, 1.0 ],
									"hint" : "Data received in this inlet sets the value for the interpolation mode control.",
									"id" : "obj-41",
									"ignoreclick" : 1,
									"maxclass" : "live.toggle",
									"numinlets" : 1,
									"numoutlets" : 1,
									"outlettype" : [ "" ],
									"parameter_enable" : 1,
									"patching_rect" : [ 858.0, 123.0, 15.0, 15.0 ],
									"presentation" : 1,
									"presentation_rect" : [ 132.0, 3.0, 9.742592, 9.742592 ],
									"rounded" : 15.0,
									"saved_attribute_attributes" : 									{
										"activebgcolor" : 										{
											"expression" : ""
										}
,
										"activebgoncolor" : 										{
											"expression" : ""
										}
,
										"bgcolor" : 										{
											"expression" : ""
										}
,
										"bgoncolor" : 										{
											"expression" : ""
										}
,
										"bordercolor" : 										{
											"expression" : ""
										}
,
										"focusbordercolor" : 										{
											"expression" : ""
										}
,
										"valueof" : 										{
											"parameter_enum" : [ "off", "on" ],
											"parameter_initial" : [ 1 ],
											"parameter_initial_enable" : 1,
											"parameter_longname" : "pictctrl[6]",
											"parameter_mmax" : 1,
											"parameter_shortname" : "pictctrl[1]",
											"parameter_type" : 2
										}

									}
,
									"varname" : "pictctrl[7]"
								}

							}
, 							{
								"box" : 								{
									"activebgcolor" : [ 0.1, 0.1, 0.1, 1.0 ],
									"activebgoncolor" : [ 0.184, 0.443, 0.259, 1.0 ],
									"bgcolor" : [ 0.1, 0.1, 0.1, 1.0 ],
									"bgoncolor" : [ 0.184, 0.443, 0.259, 1.0 ],
									"bordercolor" : [ 0.184, 0.443, 0.259, 1.0 ],
									"focusbordercolor" : [ 0.184, 0.443, 0.259, 1.0 ],
									"hint" : "Data received in this inlet sets the value for the x step control.",
									"id" : "obj-53",
									"ignoreclick" : 1,
									"maxclass" : "live.toggle",
									"numinlets" : 1,
									"numoutlets" : 1,
									"outlettype" : [ "" ],
									"parameter_enable" : 1,
									"patching_rect" : [ 556.0, 123.0, 15.0, 15.0 ],
									"presentation" : 1,
									"presentation_rect" : [ 47.0, 3.0, 9.742592, 9.742592 ],
									"rounded" : 15.0,
									"saved_attribute_attributes" : 									{
										"activebgcolor" : 										{
											"expression" : ""
										}
,
										"activebgoncolor" : 										{
											"expression" : ""
										}
,
										"bgcolor" : 										{
											"expression" : ""
										}
,
										"bgoncolor" : 										{
											"expression" : ""
										}
,
										"bordercolor" : 										{
											"expression" : ""
										}
,
										"focusbordercolor" : 										{
											"expression" : ""
										}
,
										"valueof" : 										{
											"parameter_enum" : [ "off", "on" ],
											"parameter_initial" : [ 1 ],
											"parameter_initial_enable" : 1,
											"parameter_longname" : "pictctrl[4]",
											"parameter_mmax" : 1,
											"parameter_shortname" : "pictctrl[1]",
											"parameter_type" : 2
										}

									}
,
									"varname" : "pictctrl[5]"
								}

							}
, 							{
								"box" : 								{
									"activebgcolor" : [ 0.0, 0.019608, 0.078431, 1.0 ],
									"bordercolor" : [ 0.0, 0.019608, 0.078431, 1.0 ],
									"hint" : "Sets the interpolation mode (try 'em all!)",
									"hltcolor" : [ 0.3, 0.3, 0.3, 1.0 ],
									"id" : "obj-94",
									"maxclass" : "live.menu",
									"numinlets" : 1,
									"numoutlets" : 3,
									"outlettype" : [ "", "", "float" ],
									"parameter_enable" : 1,
									"patching_rect" : [ 748.0, 240.5, 50.0, 15.0 ],
									"presentation" : 1,
									"presentation_rect" : [ 120.474807999999996, 58.283484999999999, 50.0, 15.0 ],
									"saved_attribute_attributes" : 									{
										"activebgcolor" : 										{
											"expression" : ""
										}
,
										"bordercolor" : 										{
											"expression" : ""
										}
,
										"hltcolor" : 										{
											"expression" : ""
										}
,
										"textcolor" : 										{
											"expression" : ""
										}
,
										"tricolor" : 										{
											"expression" : ""
										}
,
										"valueof" : 										{
											"parameter_enum" : [ "0", "1", "2", "3", "4", "5", "6", "7", "8", "9", "10", "11", "12", "13", "14", "15" ],
											"parameter_initial" : [ 4 ],
											"parameter_initial_enable" : 1,
											"parameter_longname" : "umenu[1]",
											"parameter_mmax" : 15,
											"parameter_shortname" : "umenu",
											"parameter_type" : 2
										}

									}
,
									"textcolor" : [ 0.184, 0.741, 0.0, 1.0 ],
									"tricolor" : [ 0.184314, 0.443137, 0.258824, 1.0 ],
									"varname" : "umenu[1]"
								}

							}
, 							{
								"box" : 								{
									"fontname" : "Arial",
									"fontsize" : 10.0,
									"id" : "obj-95",
									"maxclass" : "comment",
									"numinlets" : 1,
									"numoutlets" : 0,
									"patching_rect" : [ 43.648499000000001, 280.0, 63.0, 18.0 ],
									"presentation" : 1,
									"presentation_rect" : [ 120.474807999999996, 41.292236000000003, 63.0, 18.0 ],
									"text" : "interp mode",
									"textcolor" : [ 0.753, 0.784, 0.839, 1.0 ]
								}

							}
, 							{
								"box" : 								{
									"activebgcolor" : [ 0.0, 0.019608, 0.078431, 1.0 ],
									"bordercolor" : [ 0.0, 0.019608, 0.078431, 1.0 ],
									"hint" : "Sets the behavior to be applied at the border of an image during processing. The image can be tiled, folded, truncated, or have its edge pixels extended beyond its border.",
									"hltcolor" : [ 0.3, 0.3, 0.3, 1.0 ],
									"id" : "obj-54",
									"maxclass" : "live.menu",
									"numinlets" : 1,
									"numoutlets" : 3,
									"outlettype" : [ "", "", "float" ],
									"parameter_enable" : 1,
									"patching_rect" : [ 919.0, 245.0, 50.0, 15.0 ],
									"presentation" : 1,
									"presentation_rect" : [ 120.474807999999996, 88.283484999999999, 50.0, 15.0 ],
									"saved_attribute_attributes" : 									{
										"activebgcolor" : 										{
											"expression" : ""
										}
,
										"bordercolor" : 										{
											"expression" : ""
										}
,
										"hltcolor" : 										{
											"expression" : ""
										}
,
										"textcolor" : 										{
											"expression" : ""
										}
,
										"tricolor" : 										{
											"expression" : ""
										}
,
										"valueof" : 										{
											"parameter_enum" : [ "wrap", "clip", "bounce" ],
											"parameter_initial" : [ 0 ],
											"parameter_initial_enable" : 1,
											"parameter_longname" : "umenu[6]",
											"parameter_mmax" : 2,
											"parameter_shortname" : "umenu",
											"parameter_type" : 2
										}

									}
,
									"textcolor" : [ 0.184, 0.741, 0.0, 1.0 ],
									"tricolor" : [ 0.184314, 0.443137, 0.258824, 1.0 ],
									"varname" : "umenu[2]"
								}

							}
, 							{
								"box" : 								{
									"fontname" : "Arial",
									"fontsize" : 10.0,
									"id" : "obj-58",
									"maxclass" : "comment",
									"numinlets" : 1,
									"numoutlets" : 0,
									"patching_rect" : [ 31.0, 323.0, 36.0, 18.0 ],
									"presentation" : 1,
									"presentation_rect" : [ 120.474807999999996, 71.283484999999999, 36.0, 18.0 ],
									"text" : "mode",
									"textcolor" : [ 0.753, 0.784, 0.839, 1.0 ]
								}

							}
, 							{
								"box" : 								{
									"fontname" : "Arial Bold",
									"fontsize" : 9.0,
									"hint" : "Video output",
									"id" : "obj-27",
									"maxclass" : "comment",
									"numinlets" : 1,
									"numoutlets" : 0,
									"patching_rect" : [ 34.109558, 179.498412999999999, 35.0, 17.0 ],
									"presentation" : 1,
									"presentation_rect" : [ 3.474808, 111.0, 35.0, 17.0 ],
									"text" : "Video",
									"textcolor" : [ 1.0, 1.0, 1.0, 1.0 ]
								}

							}
, 							{
								"box" : 								{
									"fontname" : "Arial Bold",
									"fontsize" : 9.0,
									"hint" : "Video input",
									"id" : "obj-37",
									"maxclass" : "comment",
									"numinlets" : 1,
									"numoutlets" : 0,
									"patching_rect" : [ 34.109558, 52.863525000000003, 35.0, 17.0 ],
									"presentation" : 1,
									"presentation_rect" : [ 3.474808, 0.0, 35.0, 17.0 ],
									"text" : "Video",
									"textcolor" : [ 1.0, 1.0, 1.0, 1.0 ]
								}

							}
, 							{
								"box" : 								{
									"fontname" : "Arial Bold",
									"fontsize" : 9.0,
									"hint" : "The INTERPOL8R module (based on the jit.plur object) resamples the movie input, and then interpolates back to the original size. It is perhaps better understood by experience than by description. The different interpolation modes will provide you with hours of fun.",
									"id" : "obj-83",
									"maxclass" : "comment",
									"numinlets" : 1,
									"numoutlets" : 0,
									"patching_rect" : [ 29.609558, 355.771027000000004, 68.0, 17.0 ],
									"presentation" : 1,
									"presentation_rect" : [ 3.474808, 17.0, 68.0, 17.0 ],
									"text" : "INTERPOL8R",
									"textcolor" : [ 1.0, 1.0, 1.0, 1.0 ]
								}

							}
, 							{
								"box" : 								{
									"align" : 2,
									"bgcolor" : [ 0.3, 0.3, 0.3, 1.0 ],
									"bgoncolor" : [ 0.184314, 0.443137, 0.258824, 1.0 ],
									"fontname" : "Arial Bold",
									"fontsize" : 9.0,
									"hint" : "Click on the bar to turn the effect on or off. The image is passed through without any processing when the effect is off.",
									"id" : "obj-17",
									"legacytextcolor" : 1,
									"maxclass" : "textbutton",
									"mode" : 1,
									"numinlets" : 1,
									"numoutlets" : 3,
									"outlettype" : [ "", "", "int" ],
									"parameter_enable" : 1,
									"patching_rect" : [ 298.0, 245.0, 40.0, 20.0 ],
									"presentation" : 1,
									"presentation_rect" : [ 0.474808, 15.566971000000001, 188.0, 19.0 ],
									"saved_attribute_attributes" : 									{
										"valueof" : 										{
											"parameter_initial" : [ 1 ],
											"parameter_initial_enable" : 1,
											"parameter_invisible" : 1,
											"parameter_longname" : "range[4]",
											"parameter_mmax" : 1.0,
											"parameter_shortname" : "range",
											"parameter_type" : 3
										}

									}
,
									"text" : "OFF  ",
									"textcolor" : [ 1.0, 1.0, 1.0, 1.0 ],
									"textjustification" : 2,
									"texton" : "ON  ",
									"textoncolor" : [ 0.905882, 0.909804, 0.917647, 1.0 ],
									"usebgoncolor" : 1,
									"varname" : "FreqMode[3]"
								}

							}
, 							{
								"box" : 								{
									"angle" : 0.0,
									"bgcolor" : [ 0.184, 0.443, 0.259, 1.0 ],
									"id" : "obj-109",
									"maxclass" : "panel",
									"mode" : 0,
									"numinlets" : 1,
									"numoutlets" : 0,
									"patching_rect" : [ 29.609558, 102.739990000000006, 64.0, 64.0 ],
									"presentation" : 1,
									"presentation_rect" : [ 0.474808, 15.566971000000001, 437.268768000000023, 19.0 ],
									"proportion" : 0.39,
									"rounded" : 0
								}

							}
, 							{
								"box" : 								{
									"angle" : 0.0,
									"bgcolor" : [ 0.0, 0.0, 0.0, 1.0 ],
									"id" : "obj-110",
									"maxclass" : "panel",
									"mode" : 0,
									"numinlets" : 1,
									"numoutlets" : 0,
									"patching_rect" : [ 29.609558, 35.006988999999997, 64.0, 64.0 ],
									"presentation" : 1,
									"presentation_rect" : [ 0.474808, -0.433029, 437.268768000000023, 17.0 ],
									"proportion" : 0.39,
									"rounded" : 0
								}

							}
, 							{
								"box" : 								{
									"angle" : 0.0,
									"bgcolor" : [ 0.0, 0.0, 0.0, 1.0 ],
									"id" : "obj-111",
									"maxclass" : "panel",
									"mode" : 0,
									"numinlets" : 1,
									"numoutlets" : 0,
									"patching_rect" : [ 29.609558, 316.569457999999997, 64.0, 64.0 ],
									"presentation" : 1,
									"presentation_rect" : [ 0.474808, 109.566970999999995, 437.268768000000023, 35.433025000000001 ],
									"proportion" : 0.39,
									"rounded" : 0
								}

							}
, 							{
								"box" : 								{
									"angle" : 0.0,
									"bgcolor" : [ 0.137255, 0.145098, 0.160784, 0.65 ],
									"id" : "obj-112",
									"maxclass" : "panel",
									"mode" : 0,
									"numinlets" : 1,
									"numoutlets" : 0,
									"patching_rect" : [ 29.609558, 245.0, 64.0, 64.0 ],
									"presentation" : 1,
									"presentation_rect" : [ 0.474808, 33.566971000000002, 437.268768000000023, 111.433029000000005 ],
									"proportion" : 0.39,
									"rounded" : 0
								}

							}
, 							{
								"box" : 								{
									"angle" : 0.0,
									"bgcolor" : [ 0.367404, 0.389405, 0.430238, 1.0 ],
									"id" : "obj-113",
									"maxclass" : "panel",
									"mode" : 0,
									"numinlets" : 1,
									"numoutlets" : 0,
									"patching_rect" : [ 29.609558, 172.498412999999999, 64.0, 64.0 ],
									"presentation" : 1,
									"presentation_rect" : [ 0.474808, 15.566971000000001, 437.268768000000023, 129.433029000000005 ],
									"proportion" : 0.39
								}

							}
 ],
						"lines" : [ 							{
								"patchline" : 								{
									"destination" : [ "obj-11", 0 ],
									"source" : [ "obj-1", 0 ]
								}

							}
, 							{
								"patchline" : 								{
									"destination" : [ "obj-13", 0 ],
									"source" : [ "obj-11", 0 ]
								}

							}
, 							{
								"patchline" : 								{
									"destination" : [ "obj-11", 4 ],
									"midpoints" : [ 1263.5, 329.250792999999987, 655.5, 329.250792999999987 ],
									"source" : [ "obj-12", 1 ]
								}

							}
, 							{
								"patchline" : 								{
									"destination" : [ "obj-14", 4 ],
									"midpoints" : [ 1221.5, 316.250792999999987, 518.5, 316.250792999999987 ],
									"source" : [ "obj-12", 0 ]
								}

							}
, 							{
								"patchline" : 								{
									"destination" : [ "obj-86", 0 ],
									"midpoints" : [ 591.5, 486.5, 249.5, 486.5 ],
									"source" : [ "obj-13", 0 ]
								}

							}
, 							{
								"patchline" : 								{
									"destination" : [ "obj-71", 0 ],
									"source" : [ "obj-14", 0 ]
								}

							}
, 							{
								"patchline" : 								{
									"destination" : [ "obj-56", 1 ],
									"source" : [ "obj-17", 0 ]
								}

							}
, 							{
								"patchline" : 								{
									"destination" : [ "obj-24", 0 ],
									"source" : [ "obj-19", 1 ]
								}

							}
, 							{
								"patchline" : 								{
									"destination" : [ "obj-10", 0 ],
									"source" : [ "obj-2", 0 ]
								}

							}
, 							{
								"patchline" : 								{
									"destination" : [ "obj-24", 0 ],
									"source" : [ "obj-20", 0 ]
								}

							}
, 							{
								"patchline" : 								{
									"destination" : [ "obj-51", 0 ],
									"midpoints" : [ 626.0, 151.0, 686.0, 151.0, 686.0, 112.0, 702.0, 112.0 ],
									"source" : [ "obj-20", 1 ]
								}

							}
, 							{
								"patchline" : 								{
									"destination" : [ "obj-86", 0 ],
									"midpoints" : [ 975.5, 482.0, 249.5, 482.0 ],
									"source" : [ "obj-21", 0 ]
								}

							}
, 							{
								"patchline" : 								{
									"destination" : [ "obj-20", 0 ],
									"source" : [ "obj-22", 0 ]
								}

							}
, 							{
								"patchline" : 								{
									"destination" : [ "obj-7", 0 ],
									"source" : [ "obj-24", 0 ]
								}

							}
, 							{
								"patchline" : 								{
									"destination" : [ "obj-54", 0 ],
									"midpoints" : [ 928.5, 227.5, 928.5, 227.5 ],
									"source" : [ "obj-25", 0 ]
								}

							}
, 							{
								"patchline" : 								{
									"destination" : [ "obj-5", 0 ],
									"source" : [ "obj-29", 0 ]
								}

							}
, 							{
								"patchline" : 								{
									"destination" : [ "obj-4", 0 ],
									"source" : [ "obj-3", 0 ]
								}

							}
, 							{
								"patchline" : 								{
									"destination" : [ "obj-56", 0 ],
									"source" : [ "obj-33", 0 ]
								}

							}
, 							{
								"patchline" : 								{
									"destination" : [ "obj-94", 0 ],
									"source" : [ "obj-34", 0 ]
								}

							}
, 							{
								"patchline" : 								{
									"destination" : [ "obj-34", 0 ],
									"source" : [ "obj-36", 0 ]
								}

							}
, 							{
								"patchline" : 								{
									"destination" : [ "obj-41", 0 ],
									"midpoints" : [ 791.0, 151.0, 851.0, 151.0, 851.0, 112.0, 867.0, 112.0 ],
									"source" : [ "obj-36", 1 ]
								}

							}
, 							{
								"patchline" : 								{
									"destination" : [ "obj-94", 0 ],
									"source" : [ "obj-38", 1 ]
								}

							}
, 							{
								"patchline" : 								{
									"destination" : [ "obj-68", 0 ],
									"source" : [ "obj-39", 1 ]
								}

							}
, 							{
								"patchline" : 								{
									"destination" : [ "obj-14", 0 ],
									"source" : [ "obj-4", 0 ]
								}

							}
, 							{
								"patchline" : 								{
									"destination" : [ "obj-54", 0 ],
									"source" : [ "obj-40", 1 ]
								}

							}
, 							{
								"patchline" : 								{
									"destination" : [ "obj-36", 0 ],
									"source" : [ "obj-42", 0 ]
								}

							}
, 							{
								"patchline" : 								{
									"destination" : [ "obj-25", 0 ],
									"source" : [ "obj-43", 0 ]
								}

							}
, 							{
								"patchline" : 								{
									"destination" : [ "obj-47", 0 ],
									"midpoints" : [ 963.0, 151.0, 1023.0, 151.0, 1023.0, 112.0, 1039.0, 112.0 ],
									"source" : [ "obj-43", 1 ]
								}

							}
, 							{
								"patchline" : 								{
									"destination" : [ "obj-43", 0 ],
									"source" : [ "obj-45", 0 ]
								}

							}
, 							{
								"patchline" : 								{
									"destination" : [ "obj-53", 0 ],
									"midpoints" : [ 489.0, 151.0, 549.0, 151.0, 549.0, 112.0, 565.0, 112.0 ],
									"source" : [ "obj-5", 1 ]
								}

							}
, 							{
								"patchline" : 								{
									"destination" : [ "obj-68", 0 ],
									"source" : [ "obj-5", 0 ]
								}

							}
, 							{
								"patchline" : 								{
									"destination" : [ "obj-21", 0 ],
									"source" : [ "obj-54", 0 ]
								}

							}
, 							{
								"patchline" : 								{
									"destination" : [ "obj-17", 0 ],
									"source" : [ "obj-56", 2 ]
								}

							}
, 							{
								"patchline" : 								{
									"destination" : [ "obj-86", 0 ],
									"source" : [ "obj-56", 1 ]
								}

							}
, 							{
								"patchline" : 								{
									"destination" : [ "obj-9", 0 ],
									"source" : [ "obj-56", 0 ]
								}

							}
, 							{
								"patchline" : 								{
									"destination" : [ "obj-3", 0 ],
									"source" : [ "obj-68", 0 ]
								}

							}
, 							{
								"patchline" : 								{
									"destination" : [ "obj-1", 0 ],
									"source" : [ "obj-7", 0 ]
								}

							}
, 							{
								"patchline" : 								{
									"destination" : [ "obj-86", 0 ],
									"midpoints" : [ 756.5, 486.5, 249.5, 486.5 ],
									"source" : [ "obj-70", 0 ]
								}

							}
, 							{
								"patchline" : 								{
									"destination" : [ "obj-86", 0 ],
									"midpoints" : [ 454.5, 486.5, 249.5, 486.5 ],
									"source" : [ "obj-71", 0 ]
								}

							}
, 							{
								"patchline" : 								{
									"destination" : [ "obj-12", 0 ],
									"source" : [ "obj-8", 0 ]
								}

							}
, 							{
								"patchline" : 								{
									"destination" : [ "obj-9", 0 ],
									"midpoints" : [ 249.5, 657.5, 213.5, 657.5 ],
									"source" : [ "obj-86", 0 ]
								}

							}
, 							{
								"patchline" : 								{
									"destination" : [ "obj-70", 0 ],
									"source" : [ "obj-94", 0 ]
								}

							}
 ],
						"bgcolor" : [ 0.501961, 0.8, 0.501961, 1.0 ]
					}
,
					"patching_rect" : [ 11.0, 287.0, 188.0, 130.0 ],
					"varname" : "interpol8r",
					"viewvisibility" : 1
				}

			}
, 			{
				"box" : 				{
					"color" : [ 0.109078, 0.481945, 0.537541, 1.0 ],
					"id" : "obj-35",
					"maxclass" : "newobj",
					"numinlets" : 1,
					"numoutlets" : 1,
					"outlettype" : [ "" ],
					"patcher" : 					{
						"fileversion" : 1,
						"appversion" : 						{
							"major" : 8,
							"minor" : 5,
							"revision" : 3,
							"architecture" : "x64",
							"modernui" : 1
						}
,
						"classnamespace" : "box",
						"rect" : [ -1886.0, 87.0, 1852.0, 984.0 ],
						"bglocked" : 0,
						"openinpresentation" : 0,
						"default_fontsize" : 12.0,
						"default_fontface" : 0,
						"default_fontname" : "Arial",
						"gridonopen" : 1,
						"gridsize" : [ 15.0, 15.0 ],
						"gridsnaponopen" : 1,
						"objectsnaponopen" : 1,
						"statusbarvisible" : 2,
						"toolbarvisible" : 1,
						"lefttoolbarpinned" : 0,
						"toptoolbarpinned" : 0,
						"righttoolbarpinned" : 0,
						"bottomtoolbarpinned" : 0,
						"toolbars_unpinned_last_save" : 0,
						"tallnewobj" : 0,
						"boxanimatetime" : 200,
						"enablehscroll" : 1,
						"enablevscroll" : 1,
						"devicewidth" : 0.0,
						"description" : "",
						"digest" : "",
						"tags" : "",
						"style" : "",
						"subpatcher_template" : "",
						"assistshowspatchername" : 0,
						"boxes" : [ 							{
								"box" : 								{
									"id" : "obj-1",
									"maxclass" : "newobj",
									"numinlets" : 2,
									"numoutlets" : 1,
									"outlettype" : [ "signal" ],
									"patching_rect" : [ 50.0, 105.0, 30.0, 22.0 ],
									"text" : "*~ 2"
								}

							}
, 							{
								"box" : 								{
									"format" : 6,
									"id" : "obj-45",
									"maxclass" : "flonum",
									"numinlets" : 1,
									"numoutlets" : 2,
									"outlettype" : [ "", "bang" ],
									"parameter_enable" : 0,
									"patching_rect" : [ 50.0, 185.0, 50.0, 22.0 ]
								}

							}
, 							{
								"box" : 								{
									"id" : "obj-44",
									"maxclass" : "newobj",
									"numinlets" : 2,
									"numoutlets" : 1,
									"outlettype" : [ "float" ],
									"patching_rect" : [ 50.0, 150.0, 77.0, 22.0 ],
									"text" : "peakamp~ 2"
								}

							}
, 							{
								"box" : 								{
									"comment" : "",
									"id" : "obj-5",
									"index" : 1,
									"maxclass" : "inlet",
									"numinlets" : 0,
									"numoutlets" : 1,
									"outlettype" : [ "multichannelsignal" ],
									"patching_rect" : [ 50.0, 45.0, 30.0, 30.0 ]
								}

							}
, 							{
								"box" : 								{
									"comment" : "",
									"id" : "obj-6",
									"index" : 1,
									"maxclass" : "outlet",
									"numinlets" : 1,
									"numoutlets" : 0,
									"patching_rect" : [ 50.0, 230.0, 30.0, 30.0 ]
								}

							}
 ],
						"lines" : [ 							{
								"patchline" : 								{
									"destination" : [ "obj-44", 0 ],
									"source" : [ "obj-1", 0 ]
								}

							}
, 							{
								"patchline" : 								{
									"destination" : [ "obj-45", 0 ],
									"source" : [ "obj-44", 0 ]
								}

							}
, 							{
								"patchline" : 								{
									"destination" : [ "obj-6", 0 ],
									"source" : [ "obj-45", 0 ]
								}

							}
, 							{
								"patchline" : 								{
									"destination" : [ "obj-1", 0 ],
									"source" : [ "obj-5", 0 ]
								}

							}
 ]
					}
,
					"patching_rect" : [ 53.25, 237.199996999999996, 195.0, 22.0 ],
					"saved_object_attributes" : 					{
						"description" : "",
						"digest" : "",
						"globalpatchername" : "",
						"tags" : ""
					}
,
					"text" : "p \"turn amplitude into VIZZIE data\""
				}

			}
, 			{
				"box" : 				{
					"color" : [ 0.109804, 0.482353, 0.537255, 1.0 ],
					"id" : "obj-32",
					"maxclass" : "newobj",
					"numinlets" : 0,
					"numoutlets" : 1,
					"outlettype" : [ "jit_matrix" ],
					"patcher" : 					{
						"fileversion" : 1,
						"appversion" : 						{
							"major" : 8,
							"minor" : 5,
							"revision" : 3,
							"architecture" : "x64",
							"modernui" : 1
						}
,
						"classnamespace" : "box",
						"rect" : [ 237.0, 79.0, 640.0, 480.0 ],
						"bglocked" : 0,
						"openinpresentation" : 0,
						"default_fontsize" : 12.0,
						"default_fontface" : 0,
						"default_fontname" : "Arial",
						"gridonopen" : 1,
						"gridsize" : [ 15.0, 15.0 ],
						"gridsnaponopen" : 1,
						"objectsnaponopen" : 1,
						"statusbarvisible" : 2,
						"toolbarvisible" : 1,
						"lefttoolbarpinned" : 0,
						"toptoolbarpinned" : 0,
						"righttoolbarpinned" : 0,
						"bottomtoolbarpinned" : 0,
						"toolbars_unpinned_last_save" : 0,
						"tallnewobj" : 0,
						"boxanimatetime" : 200,
						"enablehscroll" : 1,
						"enablevscroll" : 1,
						"devicewidth" : 0.0,
						"description" : "",
						"digest" : "",
						"tags" : "",
						"style" : "",
						"subpatcher_template" : "",
						"assistshowspatchername" : 0,
						"boxes" : [ 							{
								"box" : 								{
									"id" : "obj-16",
									"maxclass" : "newobj",
									"numinlets" : 1,
									"numoutlets" : 2,
									"outlettype" : [ "jit_matrix", "" ],
									"patching_rect" : [ 50.0, 168.0, 151.0, 22.0 ],
									"text" : "jit.matrix 3 float32 100 100"
								}

							}
, 							{
								"box" : 								{
									"id" : "obj-3",
									"maxclass" : "newobj",
									"numinlets" : 1,
									"numoutlets" : 2,
									"outlettype" : [ "jit_matrix", "" ],
									"patching_rect" : [ 50.0, 136.0, 342.0, 22.0 ],
									"text" : "jit.gl.gridshape @dim 100 100 @matrixoutput 1 @shape plane"
								}

							}
, 							{
								"box" : 								{
									"comment" : "",
									"id" : "obj-31",
									"index" : 1,
									"maxclass" : "outlet",
									"numinlets" : 1,
									"numoutlets" : 0,
									"patching_rect" : [ 50.0, 215.0, 30.0, 30.0 ]
								}

							}
 ],
						"lines" : [ 							{
								"patchline" : 								{
									"destination" : [ "obj-31", 0 ],
									"source" : [ "obj-16", 0 ]
								}

							}
, 							{
								"patchline" : 								{
									"destination" : [ "obj-16", 0 ],
									"source" : [ "obj-3", 0 ]
								}

							}
 ]
					}
,
					"patching_rect" : [ 11.0, 179.0, 121.0, 22.0 ],
					"saved_object_attributes" : 					{
						"description" : "",
						"digest" : "",
						"globalpatchername" : "",
						"tags" : ""
					}
,
					"text" : "p \"Shape Generator\""
				}

			}
, 			{
				"box" : 				{
					"angle" : 270.0,
					"background" : 1,
					"bordercolor" : [ 0.65098, 0.666667, 0.662745, 0.0 ],
					"grad1" : [ 0.65098, 0.666667, 0.662745, 1.0 ],
					"grad2" : [ 0.65098, 0.666667, 0.662745, 1.0 ],
					"id" : "obj-9",
					"maxclass" : "panel",
					"mode" : 1,
					"numinlets" : 1,
					"numoutlets" : 0,
					"patching_rect" : [ 11.0, 12.0, 24.799999, 24.799999 ],
					"proportion" : 0.39,
					"rounded" : 0
				}

			}
, 			{
				"box" : 				{
					"angle" : 270.0,
					"background" : 1,
					"bordercolor" : [ 0.65098, 0.666667, 0.662745, 0.0 ],
					"grad1" : [ 0.65098, 0.666667, 0.662745, 1.0 ],
					"grad2" : [ 0.65098, 0.666667, 0.662745, 1.0 ],
					"id" : "obj-51",
					"maxclass" : "panel",
					"mode" : 1,
					"numinlets" : 1,
					"numoutlets" : 0,
					"patching_rect" : [ 264.0, 237.199996999999996, 244.0, 159.0 ],
					"proportion" : 0.39,
					"rounded" : 0
				}

			}
, 			{
				"box" : 				{
					"angle" : 270.0,
					"background" : 1,
					"border" : 2,
					"bordercolor" : [ 0.65098, 0.666667, 0.662745, 1.0 ],
					"grad1" : [ 0.376471, 0.384314, 0.4, 0.0 ],
					"grad2" : [ 0.290196, 0.309804, 0.301961, 0.0 ],
					"id" : "obj-5",
					"maxclass" : "panel",
					"mode" : 1,
					"numinlets" : 1,
					"numoutlets" : 0,
					"patching_rect" : [ 172.300003000000004, 547.40002400000003, 150.0, 22.0 ],
					"proportion" : 0.39,
					"rounded" : 0
				}

			}
, 			{
				"box" : 				{
					"angle" : 270.0,
					"background" : 1,
					"bordercolor" : [ 0.65098, 0.666667, 0.662745, 0.0 ],
					"grad1" : [ 0.65098, 0.666667, 0.662745, 1.0 ],
					"grad2" : [ 0.65098, 0.666667, 0.662745, 1.0 ],
					"id" : "obj-49",
					"maxclass" : "panel",
					"mode" : 1,
					"numinlets" : 1,
					"numoutlets" : 0,
					"patching_rect" : [ 259.0, 27.999998000000001, 150.0, 30.0 ],
					"proportion" : 0.39,
					"rounded" : 0
				}

			}
, 			{
				"box" : 				{
					"angle" : 270.0,
					"background" : 1,
					"bordercolor" : [ 0.65098, 0.666667, 0.662745, 0.0 ],
					"grad1" : [ 0.65098, 0.666667, 0.662745, 1.0 ],
					"grad2" : [ 0.65098, 0.666667, 0.662745, 1.0 ],
					"id" : "obj-48",
					"maxclass" : "panel",
					"mode" : 1,
					"numinlets" : 1,
					"numoutlets" : 0,
					"patching_rect" : [ 264.0, 95.800003000000004, 143.0, 116.0 ],
					"proportion" : 0.39,
					"rounded" : 0
				}

			}
, 			{
				"box" : 				{
					"angle" : 270.0,
					"background" : 1,
					"bordercolor" : [ 0.65098, 0.666667, 0.662745, 0.0 ],
					"grad1" : [ 0.65098, 0.666667, 0.662745, 1.0 ],
					"grad2" : [ 0.65098, 0.666667, 0.662745, 1.0 ],
					"id" : "obj-47",
					"maxclass" : "panel",
					"mode" : 1,
					"numinlets" : 1,
					"numoutlets" : 0,
					"patching_rect" : [ 11.0, 443.0, 138.0, 130.0 ],
					"proportion" : 0.39,
					"rounded" : 0
				}

			}
, 			{
				"box" : 				{
					"angle" : 270.0,
					"background" : 1,
					"border" : 2,
					"bordercolor" : [ 0.65098, 0.666667, 0.662745, 1.0 ],
					"grad1" : [ 0.376471, 0.384314, 0.4, 0.0 ],
					"grad2" : [ 0.290196, 0.309804, 0.301961, 0.0 ],
					"id" : "obj-46",
					"maxclass" : "panel",
					"mode" : 1,
					"numinlets" : 1,
					"numoutlets" : 0,
					"patching_rect" : [ 172.300003000000004, 593.40002400000003, 92.5, 22.0 ],
					"proportion" : 0.39,
					"rounded" : 0
				}

			}
, 			{
				"box" : 				{
					"angle" : 270.0,
					"background" : 1,
					"border" : 2,
					"bordercolor" : [ 0.65098, 0.666667, 0.662745, 1.0 ],
					"grad1" : [ 0.376471, 0.384314, 0.4, 0.0 ],
					"grad2" : [ 0.290196, 0.309804, 0.301961, 0.0 ],
					"id" : "obj-45",
					"maxclass" : "panel",
					"mode" : 1,
					"numinlets" : 1,
					"numoutlets" : 0,
					"patching_rect" : [ 172.300003000000004, 509.399993999999992, 150.0, 22.0 ],
					"proportion" : 0.39,
					"rounded" : 0
				}

			}
, 			{
				"box" : 				{
					"angle" : 270.0,
					"background" : 1,
					"border" : 2,
					"bordercolor" : [ 0.65098, 0.666667, 0.662745, 1.0 ],
					"grad1" : [ 0.376471, 0.384314, 0.4, 0.0 ],
					"grad2" : [ 0.290196, 0.309804, 0.301961, 0.0 ],
					"id" : "obj-43",
					"maxclass" : "panel",
					"mode" : 1,
					"numinlets" : 1,
					"numoutlets" : 0,
					"patching_rect" : [ 11.0, 643.0, 103.0, 22.0 ],
					"proportion" : 0.39,
					"rounded" : 0
				}

			}
, 			{
				"box" : 				{
					"angle" : 270.0,
					"background" : 1,
					"border" : 2,
					"bordercolor" : [ 0.65098, 0.666667, 0.662745, 1.0 ],
					"grad1" : [ 0.376471, 0.384314, 0.4, 0.0 ],
					"grad2" : [ 0.290196, 0.309804, 0.301961, 0.0 ],
					"id" : "obj-42",
					"maxclass" : "panel",
					"mode" : 1,
					"numinlets" : 1,
					"numoutlets" : 0,
					"patching_rect" : [ 356.400023999999974, 596.59997599999997, 177.0, 22.0 ],
					"proportion" : 0.39,
					"rounded" : 0
				}

			}
, 			{
				"box" : 				{
					"angle" : 270.0,
					"background" : 1,
					"border" : 2,
					"bordercolor" : [ 0.65098, 0.666667, 0.662745, 1.0 ],
					"grad1" : [ 0.376471, 0.384314, 0.4, 0.0 ],
					"grad2" : [ 0.290196, 0.309804, 0.301961, 0.0 ],
					"id" : "obj-40",
					"maxclass" : "panel",
					"mode" : 1,
					"numinlets" : 1,
					"numoutlets" : 0,
					"patching_rect" : [ 356.400023999999974, 560.59997599999997, 177.0, 22.0 ],
					"proportion" : 0.39,
					"rounded" : 0
				}

			}
, 			{
				"box" : 				{
					"angle" : 270.0,
					"background" : 1,
					"border" : 2,
					"bordercolor" : [ 0.65098, 0.666667, 0.662745, 1.0 ],
					"grad1" : [ 0.376471, 0.384314, 0.4, 0.0 ],
					"grad2" : [ 0.290196, 0.309804, 0.301961, 0.0 ],
					"id" : "obj-39",
					"maxclass" : "panel",
					"mode" : 1,
					"numinlets" : 1,
					"numoutlets" : 0,
					"patching_rect" : [ 76.0, 68.400002000000001, 150.800003000000004, 22.0 ],
					"proportion" : 0.39,
					"rounded" : 0
				}

			}
, 			{
				"box" : 				{
					"angle" : 270.0,
					"background" : 1,
					"border" : 2,
					"bordercolor" : [ 0.65098, 0.666667, 0.662745, 1.0 ],
					"grad1" : [ 0.376471, 0.384314, 0.4, 0.0 ],
					"grad2" : [ 0.290196, 0.309804, 0.301961, 0.0 ],
					"id" : "obj-38",
					"maxclass" : "panel",
					"mode" : 1,
					"numinlets" : 1,
					"numoutlets" : 0,
					"patching_rect" : [ 76.0, 27.399999999999999, 150.800003000000004, 22.0 ],
					"proportion" : 0.39,
					"rounded" : 0
				}

			}
, 			{
				"box" : 				{
					"angle" : 270.0,
					"background" : 1,
					"border" : 2,
					"bordercolor" : [ 0.65098, 0.666667, 0.662745, 1.0 ],
					"grad1" : [ 0.376471, 0.384314, 0.4, 0.0 ],
					"grad2" : [ 0.290196, 0.309804, 0.301961, 0.0 ],
					"id" : "obj-4",
					"maxclass" : "panel",
					"mode" : 1,
					"numinlets" : 1,
					"numoutlets" : 0,
					"patching_rect" : [ 11.0, 111.400002000000001, 51.799999, 22.0 ],
					"proportion" : 0.39,
					"rounded" : 0
				}

			}
, 			{
				"box" : 				{
					"angle" : 270.0,
					"background" : 1,
					"bordercolor" : [ 0.65098, 0.666667, 0.662745, 0.0 ],
					"grad1" : [ 0.65098, 0.666667, 0.662745, 1.0 ],
					"grad2" : [ 0.65098, 0.666667, 0.662745, 1.0 ],
					"id" : "obj-10",
					"maxclass" : "panel",
					"mode" : 1,
					"numinlets" : 1,
					"numoutlets" : 0,
					"patching_rect" : [ 11.0, 287.0, 188.0, 130.0 ],
					"proportion" : 0.39,
					"rounded" : 0
				}

			}
, 			{
				"box" : 				{
					"attr" : "floating",
					"id" : "obj-6",
					"maxclass" : "attrui",
					"numinlets" : 1,
					"numoutlets" : 1,
					"outlettype" : [ "" ],
					"parameter_enable" : 0,
					"patching_rect" : [ 76.0, 27.399999999999999, 150.0, 22.0 ]
				}

			}
, 			{
				"box" : 				{
					"attr" : "erase_color",
					"id" : "obj-7",
					"maxclass" : "attrui",
					"numinlets" : 1,
					"numoutlets" : 1,
					"outlettype" : [ "" ],
					"parameter_enable" : 0,
					"patching_rect" : [ 76.0, 68.400002000000001, 150.0, 22.0 ]
				}

			}
, 			{
				"box" : 				{
					"attr" : "poly_mode",
					"id" : "obj-16",
					"maxclass" : "attrui",
					"numinlets" : 1,
					"numoutlets" : 1,
					"outlettype" : [ "" ],
					"parameter_enable" : 0,
					"patching_rect" : [ 356.400023999999974, 560.59997599999997, 177.000000000000057, 22.0 ]
				}

			}
, 			{
				"box" : 				{
					"attr" : "draw_mode",
					"id" : "obj-17",
					"maxclass" : "attrui",
					"numinlets" : 1,
					"numoutlets" : 1,
					"outlettype" : [ "" ],
					"parameter_enable" : 0,
					"patching_rect" : [ 356.400023999999974, 596.59997599999997, 251.000000000000057, 22.0 ]
				}

			}
, 			{
				"box" : 				{
					"attr" : "mat_diffuse",
					"id" : "obj-25",
					"maxclass" : "attrui",
					"numinlets" : 1,
					"numoutlets" : 1,
					"outlettype" : [ "" ],
					"parameter_enable" : 0,
					"patching_rect" : [ 172.300003000000004, 547.40002400000003, 150.0, 22.0 ]
				}

			}
, 			{
				"box" : 				{
					"attr" : "mat_emission",
					"id" : "obj-26",
					"maxclass" : "attrui",
					"numinlets" : 1,
					"numoutlets" : 1,
					"outlettype" : [ "" ],
					"parameter_enable" : 0,
					"patching_rect" : [ 172.300003000000004, 509.399993999999992, 150.0, 22.0 ]
				}

			}
, 			{
				"box" : 				{
					"attr" : "function",
					"id" : "obj-36",
					"maxclass" : "attrui",
					"numinlets" : 1,
					"numoutlets" : 1,
					"outlettype" : [ "" ],
					"parameter_enable" : 0,
					"patching_rect" : [ 472.0, 418.0, 246.0, 22.0 ]
				}

			}
, 			{
				"box" : 				{
					"attr" : "floating",
					"id" : "obj-76",
					"maxclass" : "attrui",
					"numinlets" : 1,
					"numoutlets" : 1,
					"outlettype" : [ "" ],
					"parameter_enable" : 0,
					"patching_rect" : [ 1094.0, 934.0, 150.0, 22.0 ]
				}

			}
, 			{
				"box" : 				{
					"attr" : "fullscreen",
					"id" : "obj-77",
					"maxclass" : "attrui",
					"numinlets" : 1,
					"numoutlets" : 1,
					"outlettype" : [ "" ],
					"parameter_enable" : 0,
					"patching_rect" : [ 1247.0, 934.0, 150.0, 22.0 ]
				}

			}
 ],
		"lines" : [ 			{
				"patchline" : 				{
					"destination" : [ "obj-66", 0 ],
					"order" : 1,
					"source" : [ "obj-1", 0 ]
				}

			}
, 			{
				"patchline" : 				{
					"destination" : [ "obj-74", 1 ],
					"order" : 0,
					"source" : [ "obj-1", 0 ]
				}

			}
, 			{
				"patchline" : 				{
					"destination" : [ "obj-8", 0 ],
					"source" : [ "obj-11", 0 ]
				}

			}
, 			{
				"patchline" : 				{
					"destination" : [ "obj-21", 1 ],
					"midpoints" : [ 988.5, 171.0, 695.5, 171.0, 695.5, 84.800003000000004, 402.5, 84.800003000000004 ],
					"order" : 1,
					"source" : [ "obj-12", 1 ]
				}

			}
, 			{
				"patchline" : 				{
					"destination" : [ "obj-21", 0 ],
					"midpoints" : [ 933.5, 171.0, 603.5, 171.0, 603.5, 84.800003000000004, 273.5, 84.800003000000004 ],
					"order" : 1,
					"source" : [ "obj-12", 0 ]
				}

			}
, 			{
				"patchline" : 				{
					"destination" : [ "obj-63", 2 ],
					"midpoints" : [ 988.5, 367.5, 895.0, 367.5 ],
					"order" : 0,
					"source" : [ "obj-12", 1 ]
				}

			}
, 			{
				"patchline" : 				{
					"destination" : [ "obj-63", 1 ],
					"midpoints" : [ 933.5, 367.5, 809.75, 367.5 ],
					"order" : 0,
					"source" : [ "obj-12", 0 ]
				}

			}
, 			{
				"patchline" : 				{
					"destination" : [ "obj-11", 0 ],
					"source" : [ "obj-15", 0 ]
				}

			}
, 			{
				"patchline" : 				{
					"destination" : [ "obj-8", 0 ],
					"source" : [ "obj-16", 0 ]
				}

			}
, 			{
				"patchline" : 				{
					"destination" : [ "obj-8", 0 ],
					"source" : [ "obj-17", 0 ]
				}

			}
, 			{
				"patchline" : 				{
					"destination" : [ "obj-21", 1 ],
					"midpoints" : [ 301.25, 76.400001500000002, 402.5, 76.400001500000002 ],
					"order" : 0,
					"source" : [ "obj-20", 1 ]
				}

			}
, 			{
				"patchline" : 				{
					"destination" : [ "obj-21", 0 ],
					"midpoints" : [ 268.5, 76.400001500000002, 273.5, 76.400001500000002 ],
					"order" : 2,
					"source" : [ "obj-20", 0 ]
				}

			}
, 			{
				"patchline" : 				{
					"destination" : [ "obj-33", 0 ],
					"midpoints" : [ 268.5, 172.0, 712.5, 172.0 ],
					"order" : 0,
					"source" : [ "obj-20", 0 ]
				}

			}
, 			{
				"patchline" : 				{
					"destination" : [ "obj-35", 0 ],
					"midpoints" : [ 301.25, 147.099998499999998, 62.75, 147.099998499999998 ],
					"order" : 1,
					"source" : [ "obj-20", 1 ]
				}

			}
, 			{
				"patchline" : 				{
					"destination" : [ "obj-35", 0 ],
					"midpoints" : [ 268.5, 147.099998499999998, 62.75, 147.099998499999998 ],
					"order" : 1,
					"source" : [ "obj-20", 0 ]
				}

			}
, 			{
				"patchline" : 				{
					"destination" : [ "obj-8", 0 ],
					"source" : [ "obj-24", 0 ]
				}

			}
, 			{
				"patchline" : 				{
					"destination" : [ "obj-24", 0 ],
					"source" : [ "obj-25", 0 ]
				}

			}
, 			{
				"patchline" : 				{
					"destination" : [ "obj-24", 0 ],
					"source" : [ "obj-26", 0 ]
				}

			}
, 			{
				"patchline" : 				{
					"destination" : [ "obj-12", 0 ],
					"order" : 1,
					"source" : [ "obj-28", 0 ]
				}

			}
, 			{
				"patchline" : 				{
					"destination" : [ "obj-2", 0 ],
					"order" : 0,
					"source" : [ "obj-28", 0 ]
				}

			}
, 			{
				"patchline" : 				{
					"destination" : [ "obj-33", 0 ],
					"midpoints" : [ 933.5, 209.0, 712.5, 209.0 ],
					"order" : 2,
					"source" : [ "obj-28", 0 ]
				}

			}
, 			{
				"patchline" : 				{
					"destination" : [ "obj-35", 0 ],
					"midpoints" : [ 933.5, 184.099998499999998, 62.75, 184.099998499999998 ],
					"order" : 3,
					"source" : [ "obj-28", 0 ]
				}

			}
, 			{
				"patchline" : 				{
					"destination" : [ "obj-34", 0 ],
					"source" : [ "obj-29", 0 ]
				}

			}
, 			{
				"patchline" : 				{
					"destination" : [ "obj-1", 0 ],
					"source" : [ "obj-3", 0 ]
				}

			}
, 			{
				"patchline" : 				{
					"destination" : [ "obj-28", 0 ],
					"source" : [ "obj-31", 0 ]
				}

			}
, 			{
				"patchline" : 				{
					"destination" : [ "obj-15", 0 ],
					"source" : [ "obj-32", 0 ]
				}

			}
, 			{
				"patchline" : 				{
					"destination" : [ "obj-15", 1 ],
					"source" : [ "obj-34", 0 ]
				}

			}
, 			{
				"patchline" : 				{
					"destination" : [ "obj-29", 0 ],
					"source" : [ "obj-35", 0 ]
				}

			}
, 			{
				"patchline" : 				{
					"destination" : [ "obj-29", 0 ],
					"source" : [ "obj-36", 0 ]
				}

			}
, 			{
				"patchline" : 				{
					"destination" : [ "obj-7", 0 ],
					"source" : [ "obj-57", 0 ]
				}

			}
, 			{
				"patchline" : 				{
					"destination" : [ "obj-1", 0 ],
					"source" : [ "obj-6", 0 ]
				}

			}
, 			{
				"patchline" : 				{
					"destination" : [ "obj-73", 0 ],
					"source" : [ "obj-66", 0 ]
				}

			}
, 			{
				"patchline" : 				{
					"destination" : [ "obj-1", 0 ],
					"source" : [ "obj-7", 0 ]
				}

			}
, 			{
				"patchline" : 				{
					"destination" : [ "obj-67", 0 ],
					"order" : 0,
					"source" : [ "obj-73", 0 ]
				}

			}
, 			{
				"patchline" : 				{
					"destination" : [ "obj-74", 0 ],
					"order" : 1,
					"source" : [ "obj-73", 0 ]
				}

			}
, 			{
				"patchline" : 				{
					"destination" : [ "obj-63", 0 ],
					"order" : 1,
					"source" : [ "obj-74", 0 ]
				}

			}
, 			{
				"patchline" : 				{
					"destination" : [ "obj-75", 0 ],
					"order" : 0,
					"source" : [ "obj-74", 0 ]
				}

			}
, 			{
				"patchline" : 				{
					"destination" : [ "obj-75", 0 ],
					"source" : [ "obj-76", 0 ]
				}

			}
, 			{
				"patchline" : 				{
					"destination" : [ "obj-75", 0 ],
					"source" : [ "obj-77", 0 ]
				}

			}
, 			{
				"patchline" : 				{
					"destination" : [ "obj-75", 0 ],
					"source" : [ "obj-79", 0 ]
				}

			}
 ],
		"parameters" : 		{
			"obj-11::obj-1" : [ "slide down", "slide down", 0 ],
			"obj-11::obj-21" : [ "pictctrl[9]", "pictctrl[1]", 0 ],
			"obj-11::obj-28" : [ "pictctrl[3]", "pictctrl[1]", 0 ],
			"obj-11::obj-50" : [ "slide up", "slide up", 0 ],
			"obj-11::obj-56::obj-23" : [ "gswitch2[2]", "gswitch2", 0 ],
			"obj-11::obj-6" : [ "range[5]", "range", 0 ],
			"obj-15::obj-17" : [ "range[4]", "range", 0 ],
			"obj-15::obj-24" : [ "vertical", "vertical", 0 ],
			"obj-15::obj-41" : [ "pictctrl[6]", "pictctrl[1]", 0 ],
			"obj-15::obj-47" : [ "pictctrl[7]", "pictctrl[1]", 0 ],
			"obj-15::obj-51" : [ "pictctrl[5]", "pictctrl[1]", 0 ],
			"obj-15::obj-53" : [ "pictctrl[4]", "pictctrl[1]", 0 ],
			"obj-15::obj-54" : [ "umenu[6]", "umenu", 0 ],
			"obj-15::obj-56::obj-23" : [ "gswitch2[3]", "gswitch2", 0 ],
			"obj-15::obj-68" : [ "horizontal", "horizontal", 0 ],
			"obj-15::obj-94" : [ "umenu[1]", "umenu", 0 ],
			"obj-21::obj-22" : [ "Mute", "Mute", 0 ],
			"obj-21::obj-52" : [ "Level", "Level", 0 ],
			"obj-21::obj-55" : [ "DSP", "DSP", 0 ],
			"obj-21::obj-56" : [ "OutputChannel", "OutputChannel", 0 ],
			"obj-63::obj-108::obj-23" : [ "gswitch2[4]", "gswitch2", 0 ],
			"obj-63::obj-120" : [ "pictctrl[14]", "pictctrl[1]", 0 ],
			"obj-63::obj-124" : [ "pictctrl[13]", "pictctrl[1]", 0 ],
			"obj-63::obj-132" : [ "Audio gain", "Audio gain", 0 ],
			"obj-63::obj-54" : [ "Framerate", "Framerate", 0 ],
			"obj-63::obj-65" : [ "Toggle record", "Toggle record", 0 ],
			"obj-63::obj-67" : [ "umenu[4]", "umenu[2]", 0 ],
			"obj-66::obj-100" : [ "range[17]", "range", 0 ],
			"obj-66::obj-104" : [ "pictctrl[11]", "pictctrl[1]", 0 ],
			"obj-66::obj-119" : [ "Scale", "Scale", 0 ],
			"obj-66::obj-125" : [ "pictctrl[10]", "pictctrl[1]", 0 ],
			"obj-66::obj-126" : [ "pictctrl[17]", "pictctrl[1]", 0 ],
			"obj-66::obj-13" : [ "vertical[1]", "Y offset", 0 ],
			"obj-66::obj-14" : [ "X offset", "X offset", 0 ],
			"obj-66::obj-32" : [ "pictctrl[16]", "pictctrl[1]", 0 ],
			"obj-66::obj-33" : [ "pictctrl[15]", "pictctrl[1]", 0 ],
			"obj-66::obj-42" : [ "Div", "Div", 0 ],
			"obj-66::obj-47" : [ "pictctrl[8]", "pictctrl[1]", 0 ],
			"obj-66::obj-52" : [ "vertical[2]", "Y origin", 0 ],
			"obj-66::obj-60" : [ "X origin", "X origin", 0 ],
			"obj-66::obj-96::obj-23" : [ "gswitch2[5]", "gswitch2", 0 ],
			"obj-73::obj-1" : [ "Slide down", "Slide down", 0 ],
			"obj-73::obj-21" : [ "pictctrl[22]", "pictctrl[1]", 0 ],
			"obj-73::obj-28" : [ "pictctrl[20]", "pictctrl[1]", 0 ],
			"obj-73::obj-50" : [ "Slide up", "Slide up", 0 ],
			"obj-73::obj-56::obj-23" : [ "gswitch2[6]", "gswitch2", 0 ],
			"obj-73::obj-6" : [ "range[6]", "range", 0 ],
			"obj-74::obj-1" : [ "range[3]", "range", 0 ],
			"obj-74::obj-22" : [ "pictctrl[18]", "pictctrl[1]", 0 ],
			"obj-74::obj-26" : [ "pictctrl[23]", "pictctrl[1]", 0 ],
			"obj-74::obj-29" : [ "pictctrl[25]", "pictctrl[1]", 0 ],
			"obj-74::obj-35" : [ "Mix 4", "Mix 4", 0 ],
			"obj-74::obj-36" : [ "Mix 2", "Mix 2", 0 ],
			"obj-74::obj-37" : [ "Mix 1", "Mix 1", 0 ],
			"obj-74::obj-51" : [ "pictctrl[24]", "pictctrl[1]", 0 ],
			"obj-74::obj-55::obj-23" : [ "gswitch2[7]", "gswitch2", 0 ],
			"obj-74::obj-57" : [ "Mix 3", "Mix 3", 0 ],
			"obj-74::obj-59::obj-23" : [ "gswitch2[8]", "gswitch2", 0 ],
			"obj-74::obj-60::obj-23" : [ "gswitch2[9]", "gswitch2", 0 ],
			"obj-74::obj-67::obj-23" : [ "gswitch2[10]", "gswitch2", 0 ],
			"parameterbanks" : 			{

			}
,
			"parameter_overrides" : 			{
				"obj-66::obj-125" : 				{
					"parameter_longname" : "pictctrl[10]"
				}
,
				"obj-66::obj-126" : 				{
					"parameter_longname" : "pictctrl[17]"
				}
,
				"obj-66::obj-13" : 				{
					"parameter_longname" : "vertical[1]"
				}
,
				"obj-66::obj-32" : 				{
					"parameter_longname" : "pictctrl[16]"
				}
,
				"obj-66::obj-33" : 				{
					"parameter_longname" : "pictctrl[15]"
				}
,
				"obj-66::obj-52" : 				{
					"parameter_longname" : "vertical[2]"
				}
,
				"obj-73::obj-21" : 				{
					"parameter_longname" : "pictctrl[22]"
				}
,
				"obj-73::obj-28" : 				{
					"parameter_longname" : "pictctrl[20]"
				}
,
				"obj-74::obj-22" : 				{
					"parameter_longname" : "pictctrl[18]"
				}
,
				"obj-74::obj-26" : 				{
					"parameter_longname" : "pictctrl[23]"
				}
,
				"obj-74::obj-29" : 				{
					"parameter_longname" : "pictctrl[25]"
				}
,
				"obj-74::obj-51" : 				{
					"parameter_longname" : "pictctrl[24]"
				}

			}
,
			"inherited_shortname" : 1
		}
,
		"dependency_cache" : [ 			{
				"name" : "4-input-mixer.genjit",
				"bootpath" : "C74:/packages/Vizzie/patchers/gen",
				"type" : "gJIT",
				"implicit" : 1
			}
, 			{
				"name" : "RUWA - Scared to Be Alone.mp3",
				"bootpath" : "C74:/packages/MaxIntroLessons/media",
				"type" : "Mp3",
				"implicit" : 1
			}
, 			{
				"name" : "bp.Stereo.maxpat",
				"bootpath" : "C74:/packages/BEAP/clippings/BEAP/Output",
				"type" : "JSON",
				"implicit" : 1
			}
, 			{
				"name" : "data-handler.maxpat",
				"bootpath" : "C74:/packages/Vizzie/patchers/utils",
				"type" : "JSON",
				"implicit" : 1
			}
, 			{
				"name" : "ease.mxo",
				"type" : "iLaX"
			}
, 			{
				"name" : "video-handler.maxpat",
				"bootpath" : "C74:/packages/Vizzie/patchers/utils",
				"type" : "JSON",
				"implicit" : 1
			}
, 			{
				"name" : "vizzie-datatexconvert.js",
				"bootpath" : "C74:/packages/Vizzie/code",
				"type" : "TEXT",
				"implicit" : 1
			}
, 			{
				"name" : "vizzie-global.js",
				"bootpath" : "C74:/packages/Vizzie/code",
				"type" : "TEXT",
				"implicit" : 1
			}
, 			{
				"name" : "vz.4mixr.maxpat",
				"bootpath" : "C74:/packages/Vizzie/patchers",
				"type" : "JSON",
				"implicit" : 1
			}
, 			{
				"name" : "vz.avrecordr.maxpat",
				"bootpath" : "C74:/packages/Vizzie/patchers",
				"type" : "JSON",
				"implicit" : 1
			}
, 			{
				"name" : "vz.slidr.maxpat",
				"bootpath" : "C74:/packages/Vizzie/patchers",
				"type" : "JSON",
				"implicit" : 1
			}
, 			{
				"name" : "vz.tessel8r.maxpat",
				"bootpath" : "C74:/packages/Vizzie/patchers",
				"type" : "JSON",
				"implicit" : 1
			}
, 			{
				"name" : "vzgl-object.maxpat",
				"bootpath" : "C74:/packages/Vizzie/patchers/utils",
				"type" : "JSON",
				"implicit" : 1
			}
, 			{
				"name" : "vzgl-outputdim.maxpat",
				"bootpath" : "C74:/packages/Vizzie/patchers/utils",
				"type" : "JSON",
				"implicit" : 1
			}
 ],
		"autosave" : 0,
		"toolbaradditions" : [ "audiomute" ]
	}

}
